# This file uses centimeters as units for non-parametric coordinates.

mtllib Pillar1.mtl
g default
v -25.234921 7.319428 0.048299
v -25.234921 7.228075 0.048299
v -24.541708 7.319428 0.048299
v -24.541708 7.228075 0.048299
v -24.541708 7.319428 -0.048299
v -24.541708 7.228075 -0.048299
v -25.234921 7.319428 -0.048299
v -25.234921 7.228075 -0.048299
vt 0.375000 0.000000
vt 0.625000 0.000000
vt 0.375000 0.250000
vt 0.625000 0.250000
vt 0.375000 0.500000
vt 0.625000 0.500000
vt 0.375000 0.750000
vt 0.625000 0.750000
vt 0.375000 1.000000
vt 0.625000 1.000000
vt 0.875000 0.000000
vt 0.875000 0.250000
vt 0.125000 0.000000
vt 0.125000 0.250000
vn 0.000000 -0.000000 1.000000
vn 0.000000 -0.000000 1.000000
vn 0.000000 -0.000000 1.000000
vn 0.000000 -0.000000 1.000000
vn 1.000000 -0.000000 0.000000
vn 1.000000 -0.000000 0.000000
vn 1.000000 -0.000000 0.000000
vn 1.000000 -0.000000 0.000000
vn 0.000000 0.000000 -1.000000
vn 0.000000 0.000000 -1.000000
vn 0.000000 0.000000 -1.000000
vn 0.000000 0.000000 -1.000000
vn -1.000000 0.000000 0.000000
vn -1.000000 0.000000 0.000000
vn -1.000000 0.000000 0.000000
vn -1.000000 0.000000 0.000000
vn -0.000000 -1.000000 0.000000
vn -0.000000 -1.000000 0.000000
vn -0.000000 -1.000000 0.000000
vn -0.000000 -1.000000 0.000000
vn 0.000000 1.000000 0.000000
vn 0.000000 1.000000 0.000000
vn 0.000000 1.000000 0.000000
vn 0.000000 1.000000 0.000000
s off
g pCube18 Pillar1 Props
usemtl initialShadingGroup
f 1/1/1 2/2/2 4/4/3 3/3/4
f 3/3/5 4/4/6 6/6/7 5/5/8
f 5/5/9 6/6/10 8/8/11 7/7/12
f 7/7/13 8/8/14 2/10/15 1/9/16
f 2/2/17 8/11/18 6/12/19 4/4/20
f 7/13/21 1/1/22 3/3/23 5/14/24
g default
v -25.847772 5.346027 0.956604
v -23.934565 5.346027 0.956604
v -25.847772 5.658060 0.956604
v -23.934565 5.658060 0.956604
v -25.847772 5.658060 -0.956604
v -23.934565 5.658060 -0.956604
v -25.847772 5.346027 -0.956604
v -23.934565 5.346027 -0.956604
vt 0.375000 0.000000
vt 0.625000 0.000000
vt 0.375000 0.250000
vt 0.625000 0.250000
vt 0.375000 0.500000
vt 0.625000 0.500000
vt 0.375000 0.750000
vt 0.625000 0.750000
vt 0.375000 1.000000
vt 0.625000 1.000000
vt 0.875000 0.000000
vt 0.875000 0.250000
vt 0.125000 0.000000
vt 0.125000 0.250000
vn 0.000000 0.000000 1.000000
vn 0.000000 0.000000 1.000000
vn 0.000000 0.000000 1.000000
vn 0.000000 0.000000 1.000000
vn 0.000000 1.000000 0.000000
vn 0.000000 1.000000 0.000000
vn 0.000000 1.000000 0.000000
vn 0.000000 1.000000 0.000000
vn 0.000000 0.000000 -1.000000
vn 0.000000 0.000000 -1.000000
vn 0.000000 0.000000 -1.000000
vn 0.000000 0.000000 -1.000000
vn 0.000000 -1.000000 0.000000
vn 0.000000 -1.000000 0.000000
vn 0.000000 -1.000000 0.000000
vn 0.000000 -1.000000 0.000000
vn 1.000000 0.000000 0.000000
vn 1.000000 0.000000 0.000000
vn 1.000000 0.000000 0.000000
vn 1.000000 0.000000 0.000000
vn -1.000000 0.000000 0.000000
vn -1.000000 0.000000 0.000000
vn -1.000000 0.000000 0.000000
vn -1.000000 0.000000 0.000000
s off
g Pillar1 Props pCube14
usemtl initialShadingGroup
f 9/15/25 10/16/26 12/18/27 11/17/28
f 11/17/29 12/18/30 14/20/31 13/19/32
f 13/19/33 14/20/34 16/22/35 15/21/36
f 15/21/37 16/22/38 10/24/39 9/23/40
f 10/16/41 16/25/42 14/26/43 12/18/44
f 15/27/45 9/15/46 11/17/47 13/28/48
g default
v -24.933991 6.189030 0.048299
v -24.842638 6.189030 0.048299
v -24.933991 7.585726 0.048299
v -24.842638 7.585726 0.048299
v -24.933991 7.585726 -0.048299
v -24.842638 7.585726 -0.048299
v -24.933991 6.189030 -0.048299
v -24.842638 6.189030 -0.048299
vt 0.375000 0.000000
vt 0.625000 0.000000
vt 0.375000 0.250000
vt 0.625000 0.250000
vt 0.375000 0.500000
vt 0.625000 0.500000
vt 0.375000 0.750000
vt 0.625000 0.750000
vt 0.375000 1.000000
vt 0.625000 1.000000
vt 0.875000 0.000000
vt 0.875000 0.250000
vt 0.125000 0.000000
vt 0.125000 0.250000
vn 0.000000 0.000000 1.000000
vn 0.000000 0.000000 1.000000
vn 0.000000 0.000000 1.000000
vn 0.000000 0.000000 1.000000
vn 0.000000 1.000000 0.000000
vn 0.000000 1.000000 0.000000
vn 0.000000 1.000000 0.000000
vn 0.000000 1.000000 0.000000
vn 0.000000 0.000000 -1.000000
vn 0.000000 0.000000 -1.000000
vn 0.000000 0.000000 -1.000000
vn 0.000000 0.000000 -1.000000
vn 0.000000 -1.000000 0.000000
vn 0.000000 -1.000000 0.000000
vn 0.000000 -1.000000 0.000000
vn 0.000000 -1.000000 0.000000
vn 1.000000 0.000000 0.000000
vn 1.000000 0.000000 0.000000
vn 1.000000 0.000000 0.000000
vn 1.000000 0.000000 0.000000
vn -1.000000 0.000000 0.000000
vn -1.000000 0.000000 0.000000
vn -1.000000 0.000000 0.000000
vn -1.000000 0.000000 0.000000
s off
g Pillar1 Props pCube17
usemtl initialShadingGroup
f 17/29/49 18/30/50 20/32/51 19/31/52
f 19/31/53 20/32/54 22/34/55 21/33/56
f 21/33/57 22/34/58 24/36/59 23/35/60
f 23/35/61 24/36/62 18/38/63 17/37/64
f 18/30/65 24/39/66 22/40/67 20/32/68
f 23/41/69 17/29/70 19/31/71 21/42/72
g default
v -25.614101 1.846810 0.714823
v -24.184455 1.846810 0.714823
v -25.614101 5.422080 0.714823
v -24.184455 5.422080 0.714823
v -25.614101 5.422080 -0.714823
v -24.184455 5.422080 -0.714823
v -25.614101 1.846810 -0.714823
v -24.184455 1.846810 -0.714823
vt 0.375000 0.000000
vt 0.625000 0.000000
vt 0.375000 0.250000
vt 0.625000 0.250000
vt 0.375000 0.500000
vt 0.625000 0.500000
vt 0.375000 0.750000
vt 0.625000 0.750000
vt 0.375000 1.000000
vt 0.625000 1.000000
vt 0.875000 0.000000
vt 0.875000 0.250000
vt 0.125000 0.000000
vt 0.125000 0.250000
vn 0.000000 0.000000 1.000000
vn 0.000000 0.000000 1.000000
vn 0.000000 0.000000 1.000000
vn 0.000000 0.000000 1.000000
vn 0.000000 1.000000 0.000000
vn 0.000000 1.000000 0.000000
vn 0.000000 1.000000 0.000000
vn 0.000000 1.000000 0.000000
vn 0.000000 0.000000 -1.000000
vn 0.000000 0.000000 -1.000000
vn 0.000000 0.000000 -1.000000
vn 0.000000 0.000000 -1.000000
vn 0.000000 -1.000000 0.000000
vn 0.000000 -1.000000 0.000000
vn 0.000000 -1.000000 0.000000
vn 0.000000 -1.000000 0.000000
vn 1.000000 0.000000 0.000000
vn 1.000000 0.000000 0.000000
vn 1.000000 0.000000 0.000000
vn 1.000000 0.000000 0.000000
vn -1.000000 0.000000 0.000000
vn -1.000000 0.000000 0.000000
vn -1.000000 0.000000 0.000000
vn -1.000000 0.000000 0.000000
s off
g Pillar1 Props pCube12
usemtl initialShadingGroup
f 25/43/73 26/44/74 28/46/75 27/45/76
f 27/45/77 28/46/78 30/48/79 29/47/80
f 29/47/81 30/48/82 32/50/83 31/49/84
f 31/49/85 32/50/86 26/52/87 25/51/88
f 26/44/89 32/53/90 30/54/91 28/46/92
f 31/55/93 25/43/94 27/45/95 29/56/96
g default
v -25.537786 5.894626 0.646618
v -24.244551 5.894626 0.646618
v -25.537786 6.206659 0.646618
v -24.244551 6.206659 0.646618
v -25.537786 6.206659 -0.646618
v -24.244551 6.206659 -0.646618
v -25.537786 5.894626 -0.646618
v -24.244551 5.894626 -0.646618
vt 0.375000 0.000000
vt 0.625000 0.000000
vt 0.375000 0.250000
vt 0.625000 0.250000
vt 0.375000 0.500000
vt 0.625000 0.500000
vt 0.375000 0.750000
vt 0.625000 0.750000
vt 0.375000 1.000000
vt 0.625000 1.000000
vt 0.875000 0.000000
vt 0.875000 0.250000
vt 0.125000 0.000000
vt 0.125000 0.250000
vn 0.000000 0.000000 1.000000
vn 0.000000 0.000000 1.000000
vn 0.000000 0.000000 1.000000
vn 0.000000 0.000000 1.000000
vn 0.000000 1.000000 0.000000
vn 0.000000 1.000000 0.000000
vn 0.000000 1.000000 0.000000
vn 0.000000 1.000000 0.000000
vn 0.000000 0.000000 -1.000000
vn 0.000000 0.000000 -1.000000
vn 0.000000 0.000000 -1.000000
vn 0.000000 0.000000 -1.000000
vn 0.000000 -1.000000 0.000000
vn 0.000000 -1.000000 0.000000
vn 0.000000 -1.000000 0.000000
vn 0.000000 -1.000000 0.000000
vn 1.000000 0.000000 0.000000
vn 1.000000 0.000000 0.000000
vn 1.000000 0.000000 0.000000
vn 1.000000 0.000000 0.000000
vn -1.000000 0.000000 0.000000
vn -1.000000 0.000000 0.000000
vn -1.000000 0.000000 0.000000
vn -1.000000 0.000000 0.000000
s off
g Pillar1 Props pCube16
usemtl initialShadingGroup
f 33/57/97 34/58/98 36/60/99 35/59/100
f 35/59/101 36/60/102 38/62/103 37/61/104
f 37/61/105 38/62/106 40/64/107 39/63/108
f 39/63/109 40/64/110 34/66/111 33/65/112
f 34/58/113 40/67/114 38/68/115 36/60/116
f 39/69/117 33/57/118 35/59/119 37/70/120
g default
v -25.907968 1.290503 1.016799
v -23.874370 1.290503 1.016799
v -25.907968 1.290503 -1.016799
v -23.874370 1.290503 -1.016799
v -25.907968 1.619929 1.016799
v -25.863842 1.784609 0.972673
v -25.743288 1.905163 0.852119
v -25.578608 1.949289 0.687439
v -24.203730 1.949289 0.687439
v -24.039050 1.905163 0.852119
v -23.918496 1.784609 0.972673
v -23.874370 1.619929 1.016799
v -25.578608 1.949289 -0.687439
v -25.743288 1.905163 -0.852119
v -25.863842 1.784609 -0.972673
v -25.907968 1.619929 -1.016799
v -24.203730 1.949289 -0.687439
v -24.039050 1.905163 -0.852119
v -23.918496 1.784609 -0.972673
v -23.874370 1.619929 -1.016799
vt 0.625000 0.750000
vt 0.375000 1.000000
vt 0.625000 1.000000
vt 0.625000 0.000000
vt 0.375000 0.125012
vt 0.415490 0.290490
vt 0.584510 0.290490
vt 0.584510 0.459510
vt 0.625000 0.624987
vt 0.375000 0.750000
vt 0.875000 0.000000
vt 0.625000 0.125012
vt 0.125000 0.000000
vt 0.375000 0.000000
vt 0.125000 0.125012
vt 0.875000 0.125012
vt 0.375000 0.624987
vt 0.415490 0.459510
vt 0.375000 0.250000
vt 0.399481 0.274481
vt 0.600519 0.274481
vt 0.625000 0.250000
vt 0.399481 0.475519
vt 0.375000 0.500000
vt 0.125000 0.250000
vt 0.600519 0.475519
vt 0.625000 0.500000
vt 0.875000 0.250000
vn 0.000000 -1.000000 0.000000
vn 0.000000 -1.000000 0.000000
vn 0.000000 -1.000000 0.000000
vn 0.000000 -1.000000 0.000000
vn -0.036867 0.998640 0.036867
vn -0.131633 0.982520 0.131633
vn 0.131633 0.982520 0.131633
vn 0.036867 0.998640 0.036867
vn 0.000000 0.707107 0.707107
vn 0.000000 0.459194 0.888336
vn 0.000000 0.459194 0.888336
vn 0.000000 0.707107 0.707107
vn 0.000000 0.084396 0.996432
vn 0.000000 0.084396 0.996432
vn 0.000000 0.000000 1.000000
vn 0.000000 0.000000 1.000000
vn 0.036867 0.998640 -0.036867
vn -0.036867 0.998640 -0.036867
vn 0.000000 0.084396 -0.996432
vn 0.000000 0.084396 -0.996432
vn 0.000000 0.000000 -1.000000
vn 0.000000 0.000000 -1.000000
vn 1.000000 0.000000 0.000000
vn 1.000000 0.000000 0.000000
vn 0.996432 0.084396 0.000000
vn 0.996432 0.084396 0.000000
vn -1.000000 0.000000 0.000000
vn -1.000000 0.000000 0.000000
vn -0.996432 0.084396 0.000000
vn -0.996432 0.084396 0.000000
vn 0.965926 0.258818 0.000000
vn 0.965926 0.258818 0.000000
vn 0.131633 0.982520 -0.131633
vn 0.707106 0.707107 0.000000
vn 0.707106 0.707107 0.000000
vn 0.707106 0.707107 0.000000
vn 0.707106 0.707107 0.000000
vn -0.888336 0.459194 0.000000
vn -0.888336 0.459194 0.000000
vn -0.707107 0.707107 0.000000
vn -0.707107 0.707107 0.000000
vn -0.131633 0.982520 -0.131633
vn 0.000000 0.459194 -0.888336
vn 0.000000 0.459194 -0.888336
vn 0.000000 0.707107 -0.707107
vn 0.000000 0.707107 -0.707107
s off
g Pillar1 Props pCube13
usemtl initialShadingGroup
f 43/80/121 44/71/122 42/73/123 41/72/124
s 1
f 48/76/125 47/90/126 50/91/127 49/77/128
s 2
f 47/90/129 46/89/130 51/92/131 50/91/132
f 46/89/130 45/75/133 52/82/134 51/92/131
f 41/84/135 42/74/136 52/82/134 45/75/133
s 1
f 48/76/125 49/77/128 57/78/137 53/88/138
s 3
f 56/87/139 60/79/140 44/71/141 43/80/142
s 4
f 42/74/143 44/81/144 60/86/145 52/82/146
s 5
f 43/83/147 41/84/148 45/75/149 56/85/150
s 4
f 51/92/151 52/82/146 60/86/145 59/98/152
s 1
f 49/77/128 50/91/127 58/96/153 57/78/137
s off
f 50/91/154 51/92/155 59/97/156 58/96/157
s 5
f 45/75/149 46/89/158 55/95/159 56/85/150
f 46/89/158 47/90/160 54/93/161 55/94/159
s 1
f 47/90/126 48/76/125 53/88/138 54/93/162
s 3
f 56/87/139 55/94/163 59/97/164 60/79/140
f 55/94/163 54/93/165 58/96/166 59/97/164
s 1
f 54/93/162 53/88/138 57/78/137 58/96/153
g default
v -25.661193 5.615579 0.770024
v -24.121145 5.615579 0.770024
v -25.661193 5.927612 0.770024
v -24.121145 5.927612 0.770024
v -25.661193 5.927612 -0.770024
v -24.121145 5.927612 -0.770024
v -25.661193 5.615579 -0.770024
v -24.121145 5.615579 -0.770024
vt 0.375000 0.000000
vt 0.625000 0.000000
vt 0.375000 0.250000
vt 0.625000 0.250000
vt 0.375000 0.500000
vt 0.625000 0.500000
vt 0.375000 0.750000
vt 0.625000 0.750000
vt 0.375000 1.000000
vt 0.625000 1.000000
vt 0.875000 0.000000
vt 0.875000 0.250000
vt 0.125000 0.000000
vt 0.125000 0.250000
vn 0.000000 0.000000 1.000000
vn 0.000000 0.000000 1.000000
vn 0.000000 0.000000 1.000000
vn 0.000000 0.000000 1.000000
vn 0.000000 1.000000 0.000000
vn 0.000000 1.000000 0.000000
vn 0.000000 1.000000 0.000000
vn 0.000000 1.000000 0.000000
vn 0.000000 0.000000 -1.000000
vn 0.000000 0.000000 -1.000000
vn 0.000000 0.000000 -1.000000
vn 0.000000 0.000000 -1.000000
vn 0.000000 -1.000000 0.000000
vn 0.000000 -1.000000 0.000000
vn 0.000000 -1.000000 0.000000
vn 0.000000 -1.000000 0.000000
vn 1.000000 0.000000 0.000000
vn 1.000000 0.000000 0.000000
vn 1.000000 0.000000 0.000000
vn 1.000000 0.000000 0.000000
vn -1.000000 0.000000 0.000000
vn -1.000000 0.000000 0.000000
vn -1.000000 0.000000 0.000000
vn -1.000000 0.000000 0.000000
s off
g Pillar1 Props pCube15
usemtl initialShadingGroup
f 61/99/167 62/100/168 64/102/169 63/101/170
f 63/101/171 64/102/172 66/104/173 65/103/174
f 65/103/175 66/104/176 68/106/177 67/105/178
f 67/105/179 68/106/180 62/108/181 61/107/182
f 62/100/183 68/109/184 66/110/185 64/102/186
f 67/111/187 61/99/188 63/101/189 65/112/190
