# This file uses centimeters as units for non-parametric coordinates.

mtllib Tombstone1.mtl
g default
v -30.388469 1.356690 0.561982
v -29.264505 1.356690 0.561982
v -30.388469 1.356690 -0.561982
v -29.264505 1.356690 -0.561982
v -30.388469 1.850107 0.561982
v -30.339094 1.969309 0.512607
v -30.219891 2.018685 0.393404
v -29.433082 2.018685 0.393404
v -29.313880 1.969309 0.512607
v -29.264505 1.850107 0.561982
v -30.219891 2.018685 -0.393404
v -30.339094 1.969309 -0.512607
v -30.388469 1.850107 -0.561982
v -29.433082 2.018685 -0.393404
v -29.313880 1.969309 -0.512607
v -29.264505 1.850107 -0.561982
vt 0.625000 0.750000
vt 0.375000 1.000000
vt 0.625000 1.000000
vt 0.625000 0.000000
vt 0.375000 0.186337
vt 0.412496 0.287496
vt 0.587504 0.287496
vt 0.587504 0.462504
vt 0.625000 0.563663
vt 0.375000 0.750000
vt 0.875000 0.000000
vt 0.625000 0.186337
vt 0.125000 0.000000
vt 0.375000 0.000000
vt 0.125000 0.186337
vt 0.875000 0.186337
vt 0.375000 0.563663
vt 0.412496 0.462504
vt 0.375000 0.250000
vt 0.625000 0.250000
vt 0.375000 0.500000
vt 0.125000 0.250000
vt 0.625000 0.500000
vt 0.875000 0.250000
vn 0.000000 -1.000000 0.000000
vn 0.000000 -1.000000 0.000000
vn 0.000000 -1.000000 0.000000
vn 0.000000 -1.000000 0.000000
vn -0.069832 0.995112 0.069832
vn 0.000000 0.923879 0.382684
vn 0.000000 0.923879 0.382684
vn 0.069832 0.995112 0.069832
vn 0.000000 0.382683 0.923880
vn 0.000000 0.063656 0.997972
vn 0.000000 0.063655 0.997972
vn 0.000000 0.382683 0.923880
vn 0.000000 0.000000 1.000000
vn 0.000000 0.000000 1.000000
vn 0.069832 0.995112 -0.069832
vn -0.069832 0.995112 -0.069832
vn 0.000000 0.063656 -0.997972
vn 0.000000 0.063655 -0.997972
vn 0.000000 0.000000 -1.000000
vn 0.000000 0.000000 -1.000000
vn 1.000000 0.000000 0.000000
vn 1.000000 0.000000 0.000000
vn 0.997972 0.063655 0.000000
vn 0.997972 0.063655 0.000000
vn -1.000000 0.000000 0.000000
vn -1.000000 0.000000 0.000000
vn -0.997972 0.063655 0.000000
vn -0.997972 0.063655 0.000000
vn 0.382685 0.923879 0.000000
vn 0.382685 0.923879 0.000000
vn 0.923880 0.382683 0.000000
vn 0.923880 0.382683 0.000000
vn -0.923881 0.382680 0.000000
vn -0.923881 0.382680 0.000000
vn -0.382683 0.923880 0.000000
vn -0.382683 0.923880 0.000000
vn 0.000000 0.382683 -0.923880
vn 0.000000 0.382683 -0.923880
vn 0.000000 0.923879 -0.382684
vn 0.000000 0.923879 -0.382684
s off
g pCube8 Tombstone1 Props
usemtl initialShadingGroup
f 3/10/1 4/1/2 2/3/3 1/2/4
s 1
f 7/6/5 6/19/6 9/20/7 8/7/8
s 2
f 6/19/9 5/5/10 10/12/11 9/20/12
f 1/14/13 2/4/14 10/12/11 5/5/10
s 1
f 7/6/5 8/7/8 14/8/15 11/18/16
s 3
f 13/17/17 16/9/18 4/1/19 3/10/20
s 4
f 2/4/21 4/11/22 16/16/23 10/12/24
s 5
f 3/13/25 1/14/26 5/5/27 13/15/28
s 1
f 8/7/8 9/20/29 15/23/30 14/8/15
s 4
f 9/20/31 10/12/24 16/16/23 15/24/32
s 5
f 5/5/27 6/19/33 12/22/34 13/15/28
s 1
f 6/19/35 7/6/5 11/18/16 12/21/36
s 3
f 13/17/17 12/21/37 15/23/38 16/9/18
s 1
f 12/21/39 11/18/16 14/8/15 15/23/40
g default
v -29.889164 3.517988 0.046959
v -29.752983 3.517988 0.046959
v -29.838641 4.732719 0.022507
v -29.803506 4.732719 0.022507
v -29.838641 4.732719 -0.022507
v -29.803506 4.732719 -0.022507
v -29.889164 3.517988 -0.046959
v -29.752983 3.517988 -0.046959
v -29.943738 4.114027 0.084596
v -29.943738 4.114027 -0.084596
v -29.698409 4.114027 -0.084596
v -29.698409 4.114027 0.084596
v -29.969887 4.412047 -0.102630
v -29.969887 4.412047 0.102630
v -29.672260 4.412047 0.102630
v -29.672260 4.412047 -0.102630
v -30.004202 4.561057 -0.104970
v -30.004202 4.561057 0.104970
v -29.637945 4.561057 0.104970
v -29.637945 4.561057 -0.104970
v -29.941288 4.635562 -0.072040
v -29.941288 4.635562 0.072040
v -29.700860 4.635562 0.072040
v -29.700860 4.635562 -0.072040
v -29.921346 4.486552 0.069153
v -29.921346 4.486552 -0.069153
v -29.720802 4.486552 -0.069153
v -29.720802 4.486552 0.069153
vt 0.375000 0.000000
vt 0.625000 0.000000
vt 0.375000 0.250000
vt 0.625000 0.250000
vt 0.375000 0.500000
vt 0.625000 0.500000
vt 0.375000 0.750000
vt 0.625000 0.750000
vt 0.375000 1.000000
vt 0.625000 1.000000
vt 0.875000 0.000000
vt 0.875000 0.250000
vt 0.125000 0.000000
vt 0.125000 0.250000
vt 0.375000 0.125000
vt 0.125000 0.125000
vt 0.375000 0.625000
vt 0.625000 0.625000
vt 0.875000 0.125000
vt 0.625000 0.125000
vt 0.125000 0.187500
vt 0.375000 0.562500
vt 0.375000 0.187500
vt 0.625000 0.187500
vt 0.625000 0.562500
vt 0.875000 0.187500
vt 0.125000 0.218750
vt 0.375000 0.531250
vt 0.375000 0.218750
vt 0.625000 0.218750
vt 0.625000 0.531250
vt 0.875000 0.218750
vt 0.125000 0.234375
vt 0.375000 0.515625
vt 0.375000 0.234375
vt 0.625000 0.234375
vt 0.625000 0.515625
vt 0.875000 0.234375
vt 0.375000 0.203125
vt 0.125000 0.203125
vt 0.375000 0.546875
vt 0.625000 0.546875
vt 0.875000 0.203125
vt 0.625000 0.203125
vn 0.000000 -0.063021 0.998012
vn 0.000000 -0.063021 0.998012
vn 0.000000 -0.061504 0.998107
vn 0.000000 -0.061504 0.998107
vn 0.000000 1.000000 0.000000
vn 0.000000 1.000000 0.000000
vn 0.000000 1.000000 0.000000
vn 0.000000 1.000000 0.000000
vn 0.000000 -0.061504 -0.998107
vn 0.000000 -0.061504 -0.998107
vn 0.000000 -0.063021 -0.998012
vn 0.000000 -0.063021 -0.998012
vn 0.000000 -1.000000 0.000000
vn 0.000000 -1.000000 0.000000
vn 0.000000 -1.000000 0.000000
vn 0.000000 -1.000000 0.000000
vn 0.995834 -0.091180 0.000000
vn 0.995834 -0.091180 0.000000
vn 0.996032 -0.088996 0.000000
vn 0.996032 -0.088996 0.000000
vn -0.995834 -0.091180 0.000000
vn -0.995834 -0.091180 0.000000
vn -0.996032 -0.088996 0.000000
vn -0.996032 -0.088996 0.000000
vn -0.745587 0.666408 0.000000
vn -0.745587 0.666408 0.000000
vn -0.687420 0.726260 0.000000
vn -0.687420 0.726260 0.000000
vn 0.000000 0.454197 -0.890901
vn 0.000000 0.454197 -0.890901
vn 0.000000 0.410908 -0.911677
vn 0.000000 0.410908 -0.911677
vn 0.745587 0.666408 0.000000
vn 0.745587 0.666408 0.000000
vn 0.687420 0.726260 0.000000
vn 0.687420 0.726260 0.000000
vn 0.000000 0.410908 0.911677
vn 0.000000 0.410908 0.911677
vn 0.000000 0.454197 0.890901
vn 0.000000 0.454197 0.890901
vn -0.999816 0.019192 0.000000
vn -0.999816 0.019192 0.000000
vn 0.000000 0.013237 0.999912
vn 0.000000 0.013237 0.999912
vn 0.999816 0.019192 0.000000
vn 0.999816 0.019192 0.000000
vn 0.000000 0.013237 -0.999912
vn 0.000000 0.013237 -0.999912
vn -0.981828 -0.189773 0.000000
vn -0.981828 -0.189773 0.000000
vn 0.000000 -0.066911 0.997759
vn 0.000000 -0.066911 0.997759
vn 0.981828 -0.189773 0.000000
vn 0.981828 -0.189773 0.000000
vn 0.000000 -0.066911 -0.997759
vn 0.000000 -0.066911 -0.997759
vn -0.985969 -0.166926 0.000000
vn -0.985969 -0.166926 0.000000
vn 0.000000 0.030555 0.999533
vn 0.000000 0.030555 0.999533
vn 0.985969 -0.166926 0.000000
vn 0.985969 -0.166926 0.000000
vn 0.000000 0.030555 -0.999533
vn 0.000000 0.030555 -0.999533
s 1
g Tombstone1 Props pCube2
usemtl initialShadingGroup
f 17/25/41 18/26/42 28/44/43 25/39/44
s off
f 19/27/45 20/28/46 22/30/47 21/29/48
s 2
f 26/41/49 27/42/50 24/32/51 23/31/52
s off
f 23/31/53 24/32/54 18/34/55 17/33/56
s 3
f 18/26/57 24/35/58 27/43/59 28/44/60
s 4
f 23/37/61 17/25/62 25/39/63 26/40/64
f 37/57/65 38/59/66 19/27/67 21/38/68
s 2
f 21/29/69 22/30/70 40/61/71 37/58/72
s 3
f 39/60/73 40/62/74 22/36/75 20/28/76
s 1
f 38/59/77 39/60/78 20/28/79 19/27/80
s 4
f 26/40/64 25/39/63 30/47/81 29/45/82
s 1
f 25/39/44 28/44/43 31/48/83 30/47/84
s 3
f 28/44/60 27/43/59 32/50/85 31/48/86
s 2
f 29/46/87 32/49/88 27/42/50 26/41/49
s 4
f 29/45/82 30/47/81 41/63/89 42/64/90
s 1
f 30/47/84 31/48/83 44/68/91 41/63/92
s 3
f 31/48/86 32/50/85 43/67/93 44/68/94
s 2
f 42/65/95 43/66/96 32/49/88 29/46/87
s 4
f 33/51/97 34/53/98 38/59/66 37/57/65
s 1
f 34/53/99 35/54/100 39/60/78 38/59/77
s 3
f 35/54/101 36/56/102 40/62/74 39/60/73
s 2
f 37/58/72 40/61/71 36/55/103 33/52/104
s 4
f 42/64/90 41/63/89 34/53/98 33/51/97
s 2
f 33/52/104 36/55/103 43/66/96 42/65/95
s 3
f 44/68/94 43/67/93 36/56/102 35/54/101
s 1
f 41/63/92 44/68/91 35/54/100 34/53/99
g default
v -29.499628 3.775177 -0.062472
v -29.442356 3.662776 -0.062472
v -29.499628 3.775177 0.062472
v -29.442356 3.662776 0.062472
v -29.422622 3.538177 -0.062472
v -29.422622 3.538177 0.062472
v -29.588830 3.864379 -0.062472
v -29.588830 3.864379 0.062472
v -29.442356 3.413579 -0.062472
v -29.442356 3.413579 0.062472
v -29.701232 3.921651 -0.062472
v -29.701232 3.921651 0.062472
v -29.499628 3.301178 -0.062472
v -29.499628 3.301178 0.062472
v -29.825830 3.941385 -0.062472
v -29.825830 3.941385 0.062472
v -29.588830 3.211976 -0.062472
v -29.588830 3.211976 0.062472
v -29.950428 3.921651 -0.062472
v -29.950428 3.921651 0.062472
v -29.701232 3.154704 -0.062472
v -29.701232 3.154704 0.062472
v -30.062829 3.864379 -0.062472
v -30.062829 3.864379 0.062472
v -29.825830 3.134970 -0.062472
v -29.825830 3.134970 0.062472
v -30.152032 3.775177 -0.062472
v -30.152032 3.775177 0.062472
v -29.950428 3.154704 -0.062472
v -29.950428 3.154704 0.062472
v -30.209303 3.662776 -0.062472
v -30.209303 3.662776 0.062472
v -30.062829 3.211976 -0.062472
v -30.062829 3.211976 0.062472
v -30.229037 3.538177 -0.062472
v -30.229037 3.538177 0.062472
v -30.152032 3.301178 -0.062472
v -30.152032 3.301178 0.062472
v -30.209303 3.413579 -0.062472
v -30.209303 3.413579 0.062472
v -29.305608 3.916140 0.031239
v -29.313247 3.910590 0.062472
v -29.214273 3.736884 0.031239
v -29.223253 3.733966 0.062472
v -29.305608 3.916140 -0.031239
v -29.313247 3.910590 -0.062472
v -29.214273 3.736884 -0.031239
v -29.223253 3.733966 -0.062472
v -29.182801 3.538177 0.031239
v -29.192244 3.538177 0.062472
v -29.182801 3.538177 -0.031239
v -29.192244 3.538177 -0.062472
v -29.447867 4.058399 -0.031239
v -29.453417 4.050760 -0.062472
v -29.447867 4.058399 0.031239
v -29.453417 4.050760 0.062472
v -29.214273 3.339471 0.031239
v -29.223253 3.342388 0.062472
v -29.214273 3.339471 -0.031239
v -29.223253 3.342388 -0.062472
v -29.627123 4.149734 -0.031239
v -29.630041 4.140754 -0.062472
v -29.627123 4.149734 0.031239
v -29.630041 4.140754 0.062472
v -29.305609 3.160215 0.031239
v -29.313248 3.165765 0.062472
v -29.305609 3.160215 -0.031239
v -29.313248 3.165765 -0.062472
v -29.825830 4.181206 -0.031239
v -29.825830 4.171763 -0.062472
v -29.825830 4.181206 0.031239
v -29.825830 4.171763 0.062472
v -29.447867 3.017957 0.031239
v -29.453417 3.025596 0.062472
v -29.447867 3.017957 -0.031239
v -29.453417 3.025596 -0.062472
v -30.024536 4.149734 -0.031239
v -30.021619 4.140754 -0.062472
v -30.024536 4.149734 0.031239
v -30.021619 4.140754 0.062472
v -29.627123 2.926621 0.031239
v -29.630041 2.935602 0.062472
v -29.627123 2.926621 -0.031239
v -29.630041 2.935602 -0.062472
v -30.203792 4.058399 -0.031239
v -30.198242 4.050760 -0.062472
v -30.203792 4.058399 0.031239
v -30.198242 4.050760 0.062472
v -29.825830 2.895149 0.031239
v -29.825830 2.904592 0.062472
v -29.825830 2.895149 -0.031239
v -29.825830 2.904592 -0.062472
v -30.346050 3.916140 -0.031239
v -30.338411 3.910590 -0.062472
v -30.346050 3.916140 0.031239
v -30.338411 3.910590 0.062472
v -30.024536 2.926621 0.031239
v -30.021619 2.935602 0.062472
v -30.024536 2.926621 -0.031239
v -30.021619 2.935602 -0.062472
v -30.437386 3.736884 -0.031239
v -30.428406 3.733966 -0.062472
v -30.437386 3.736884 0.031239
v -30.428406 3.733966 0.062472
v -30.203792 3.017957 0.031239
v -30.198242 3.025596 0.062472
v -30.203792 3.017957 -0.031239
v -30.198242 3.025596 -0.062472
v -30.468858 3.538177 -0.031239
v -30.459416 3.538177 -0.062472
v -30.468858 3.538177 0.031239
v -30.459416 3.538177 0.062472
v -30.346050 3.160215 0.031239
v -30.338411 3.165765 0.062472
v -30.346050 3.160215 -0.031239
v -30.338411 3.165765 -0.062472
v -30.437386 3.339471 -0.031239
v -30.428406 3.342388 -0.062472
v -30.437386 3.339471 0.031239
v -30.428406 3.342388 0.062472
v -29.406437 3.842884 0.074426
v -29.332805 3.698371 0.074426
v -29.307433 3.538177 0.074426
v -29.332805 3.377984 0.074426
v -29.406438 3.233472 0.074426
v -29.521124 3.118786 0.074426
v -29.665636 3.045153 0.074426
v -29.825830 3.019781 0.074426
v -29.986023 3.045153 0.074426
v -30.130536 3.118786 0.074426
v -30.245221 3.233471 0.074426
v -30.318854 3.377984 0.074426
v -30.344226 3.538177 0.074426
v -30.318854 3.698371 0.074426
v -30.245221 3.842883 0.074426
v -30.130536 3.957569 0.074426
v -29.986023 4.031202 0.074426
v -29.825830 4.056574 0.074426
v -29.665636 4.031202 0.074426
v -29.521123 3.957569 0.074426
v -29.332805 3.698371 -0.076711
v -29.406437 3.842884 -0.076711
v -29.521123 3.957569 -0.076711
v -29.665636 4.031202 -0.076711
v -29.825830 4.056574 -0.076711
v -29.986023 4.031202 -0.076711
v -30.130536 3.957569 -0.076711
v -30.245221 3.842883 -0.076711
v -30.318854 3.698371 -0.076711
v -30.344226 3.538177 -0.076711
v -30.318854 3.377984 -0.076711
v -30.245221 3.233471 -0.076711
v -30.130536 3.118786 -0.076711
v -29.986023 3.045153 -0.076711
v -29.825830 3.019781 -0.076711
v -29.665636 3.045153 -0.076711
v -29.521124 3.118786 -0.076711
v -29.406438 3.233472 -0.076711
v -29.332805 3.377984 -0.076711
v -29.307433 3.538177 -0.076711
vt 0.387500 0.312554
vt 0.375000 0.312554
vt 0.375000 0.687446
vt 0.387500 0.687446
vt 0.400000 0.687446
vt 0.400000 0.312554
vt 0.625000 0.312554
vt 0.612500 0.312554
vt 0.612500 0.687446
vt 0.625000 0.687446
vt 0.412500 0.312554
vt 0.600000 0.312554
vt 0.600000 0.687446
vt 0.412500 0.687446
vt 0.425000 0.687446
vt 0.425000 0.312554
vt 0.587500 0.312554
vt 0.587500 0.687446
vt 0.437500 0.312554
vt 0.575000 0.312554
vt 0.575000 0.687446
vt 0.437500 0.687446
vt 0.450000 0.312554
vt 0.562500 0.687446
vt 0.450000 0.687446
vt 0.462500 0.312554
vt 0.562500 0.312554
vt 0.550000 0.312554
vt 0.550000 0.687446
vt 0.462500 0.687446
vt 0.475000 0.687446
vt 0.475000 0.312554
vt 0.537500 0.687446
vt 0.487500 0.687446
vt 0.487500 0.312554
vt 0.537500 0.312554
vt 0.525000 0.312554
vt 0.525000 0.687446
vt 0.500000 0.687446
vt 0.500000 0.312554
vt 0.512500 0.687446
vt 0.512500 0.312554
vt 0.387408 0.687500
vt 0.375092 0.687500
vt 0.387592 0.687500
vt 0.399908 0.687500
vt 0.625000 0.593760
vt 0.624908 0.687500
vt 0.612592 0.687500
vt 0.387592 0.312500
vt 0.399908 0.312500
vt 0.387408 0.312500
vt 0.375000 0.406241
vt 0.375092 0.312500
vt 0.624908 0.312500
vt 0.612592 0.312500
vt 0.612408 0.687500
vt 0.600092 0.687500
vt 0.612408 0.312500
vt 0.600092 0.312500
vt 0.400092 0.312500
vt 0.412408 0.312500
vt 0.400092 0.687500
vt 0.412408 0.687500
vt 0.599908 0.687500
vt 0.587592 0.687500
vt 0.599908 0.312500
vt 0.587592 0.312500
vt 0.412592 0.312500
vt 0.424908 0.312500
vt 0.412592 0.687500
vt 0.424908 0.687500
vt 0.587408 0.687500
vt 0.575092 0.687500
vt 0.587408 0.312500
vt 0.575092 0.312500
vt 0.425092 0.312500
vt 0.437408 0.312500
vt 0.425092 0.687500
vt 0.437408 0.687500
vt 0.574908 0.687500
vt 0.562592 0.687500
vt 0.574908 0.312500
vt 0.562592 0.312500
vt 0.437592 0.312500
vt 0.449908 0.312500
vt 0.437592 0.687500
vt 0.449908 0.687500
vt 0.562408 0.687500
vt 0.550092 0.687500
vt 0.562408 0.312500
vt 0.550092 0.312500
vt 0.450092 0.312500
vt 0.462408 0.312500
vt 0.450092 0.687500
vt 0.462408 0.687500
vt 0.549908 0.687500
vt 0.537592 0.687500
vt 0.549908 0.312500
vt 0.537592 0.312500
vt 0.462592 0.312500
vt 0.474908 0.312500
vt 0.462592 0.687500
vt 0.474908 0.687500
vt 0.537408 0.687500
vt 0.525092 0.687500
vt 0.537408 0.312500
vt 0.525092 0.312500
vt 0.475092 0.312500
vt 0.487408 0.312500
vt 0.475092 0.687500
vt 0.487408 0.687500
vt 0.524908 0.687500
vt 0.512592 0.687500
vt 0.524908 0.312500
vt 0.512592 0.312500
vt 0.487592 0.312500
vt 0.499908 0.312500
vt 0.487592 0.687500
vt 0.499908 0.687500
vt 0.512408 0.687500
vt 0.500092 0.687500
vt 0.512408 0.312500
vt 0.500092 0.312500
vt 0.387500 0.406241
vt 0.375000 0.593759
vt 0.612500 0.593759
vt 0.625000 0.406241
vt 0.646420 0.108675
vt 0.603196 0.081274
vt 0.400000 0.406240
vt 0.387500 0.593759
vt 0.624553 0.934243
vt 0.621314 0.883167
vt 0.600000 0.593759
vt 0.612500 0.406241
vt 0.653956 0.156250
vt 0.621314 0.116833
vt 0.646420 0.891325
vt 0.627557 0.843750
vt 0.624553 0.065757
vt 0.574976 0.053054
vt 0.412500 0.406241
vt 0.400000 0.593759
vt 0.590493 0.968303
vt 0.603196 0.918726
vt 0.600000 0.406241
vt 0.587500 0.593759
vt 0.646420 0.203825
vt 0.627557 0.156250
vt 0.653956 0.843750
vt 0.621314 0.804333
vt 0.590493 0.031697
vt 0.539417 0.034936
vt 0.425000 0.406240
vt 0.412500 0.593759
vt 0.547575 0.990170
vt 0.574976 0.946946
vt 0.587500 0.406241
vt 0.575000 0.593759
vt 0.624553 0.246743
vt 0.621314 0.195667
vt 0.646420 0.796175
vt 0.603196 0.768774
vt 0.547575 0.009829
vt 0.500000 0.028693
vt 0.437500 0.406241
vt 0.425000 0.593759
vt 0.500000 0.997705
vt 0.539417 0.965064
vt 0.575000 0.406241
vt 0.562500 0.593759
vt 0.590493 0.280803
vt 0.603196 0.231226
vt 0.624553 0.753257
vt 0.574976 0.740554
vt 0.500000 0.002294
vt 0.460583 0.034936
vt 0.450000 0.406241
vt 0.437500 0.593759
vt 0.452425 0.990170
vt 0.500000 0.971307
vt 0.562500 0.406241
vt 0.550000 0.593759
vt 0.547575 0.302670
vt 0.574976 0.259446
vt 0.590493 0.719197
vt 0.539417 0.722436
vt 0.452425 0.009829
vt 0.425024 0.053054
vt 0.462500 0.406240
vt 0.450000 0.593759
vt 0.409507 0.968303
vt 0.460583 0.965064
vt 0.550000 0.406241
vt 0.537500 0.593759
vt 0.500000 0.310206
vt 0.539417 0.277564
vt 0.547575 0.697330
vt 0.500000 0.716193
vt 0.409507 0.031697
vt 0.396804 0.081274
vt 0.475000 0.406241
vt 0.462500 0.593759
vt 0.375447 0.934243
vt 0.425024 0.946946
vt 0.537500 0.406241
vt 0.525000 0.593759
vt 0.452425 0.302670
vt 0.500000 0.283807
vt 0.500000 0.689794
vt 0.460583 0.722436
vt 0.375447 0.065757
vt 0.378686 0.116833
vt 0.487500 0.406240
vt 0.475000 0.593759
vt 0.353579 0.891325
vt 0.396804 0.918726
vt 0.525000 0.406241
vt 0.512500 0.593759
vt 0.409507 0.280803
vt 0.460583 0.277564
vt 0.452425 0.697329
vt 0.425024 0.740554
vt 0.353579 0.108675
vt 0.372443 0.156250
vt 0.500000 0.406241
vt 0.487500 0.593759
vt 0.346044 0.843750
vt 0.378686 0.883167
vt 0.512500 0.406241
vt 0.500000 0.593759
vt 0.375447 0.246743
vt 0.425024 0.259446
vt 0.409507 0.719197
vt 0.396804 0.768774
vt 0.346044 0.156250
vt 0.378686 0.195667
vt 0.353579 0.796175
vt 0.372443 0.843750
vt 0.353579 0.203825
vt 0.396804 0.231226
vt 0.375447 0.753257
vt 0.378686 0.804333
vt 0.613874 0.926484
vt 0.633867 0.887246
vt 0.640756 0.843750
vt 0.633867 0.800254
vt 0.613874 0.761016
vt 0.582734 0.729876
vt 0.543496 0.709883
vt 0.500000 0.702994
vt 0.456504 0.709883
vt 0.417266 0.729876
vt 0.386126 0.761016
vt 0.366133 0.800254
vt 0.359244 0.843750
vt 0.366133 0.887246
vt 0.386126 0.926484
vt 0.417266 0.957624
vt 0.456504 0.977617
vt 0.500000 0.984506
vt 0.543496 0.977617
vt 0.582734 0.957624
vt 0.633867 0.112754
vt 0.613874 0.073516
vt 0.582734 0.042376
vt 0.543496 0.022383
vt 0.500000 0.015494
vt 0.456504 0.022383
vt 0.417265 0.042376
vt 0.386126 0.073516
vt 0.366133 0.112754
vt 0.359244 0.156250
vt 0.366133 0.199746
vt 0.386126 0.238984
vt 0.417266 0.270124
vt 0.456504 0.290117
vt 0.500000 0.297006
vt 0.543496 0.290117
vt 0.582734 0.270124
vt 0.613874 0.238984
vt 0.633867 0.199746
vt 0.640756 0.156250
vn -0.809017 -0.587785 0.000000
vn -0.951057 -0.309017 0.000000
vn -0.951057 -0.309017 0.000000
vn -0.809017 -0.587785 0.000000
vn -0.587785 -0.809017 0.000000
vn -0.587785 -0.809017 0.000000
vn -0.951057 -0.309017 0.000000
vn -1.000000 0.000001 0.000000
vn -1.000000 0.000001 0.000000
vn -0.951057 -0.309017 0.000000
vn -0.309016 -0.951057 0.000000
vn -0.309016 -0.951057 0.000000
vn -0.951057 0.309017 0.000000
vn -0.951057 0.309017 0.000000
vn -0.309016 -0.951057 0.000000
vn -0.309016 -0.951057 0.000000
vn 0.000000 -1.000000 0.000000
vn 0.000000 -1.000000 0.000000
vn -0.809017 0.587785 0.000000
vn -0.809017 0.587785 0.000000
vn 0.309017 -0.951057 0.000000
vn 0.309017 -0.951057 0.000000
vn -0.587785 0.809017 0.000000
vn -0.587785 0.809017 0.000000
vn 0.309017 -0.951056 0.000000
vn 0.309017 -0.951057 0.000000
vn 0.587785 -0.809017 0.000000
vn 0.587785 -0.809017 0.000000
vn -0.309017 0.951057 0.000000
vn -0.309017 0.951057 0.000000
vn 0.587785 -0.809017 0.000000
vn 0.587785 -0.809017 0.000000
vn 0.809017 -0.587785 0.000000
vn 0.809017 -0.587785 0.000000
vn -0.309017 0.951057 0.000000
vn -0.000001 1.000000 0.000000
vn -0.000001 1.000000 0.000000
vn -0.309017 0.951057 0.000000
vn 0.809017 -0.587785 0.000000
vn 0.809017 -0.587785 0.000000
vn 0.951057 -0.309017 0.000000
vn 0.951057 -0.309017 0.000000
vn 0.309017 0.951057 0.000000
vn 0.309017 0.951056 0.000000
vn 1.000000 0.000000 0.000000
vn 1.000000 0.000000 0.000000
vn 0.309017 0.951057 0.000000
vn 0.587785 0.809017 0.000000
vn 0.587785 0.809017 0.000000
vn 0.309017 0.951057 0.000000
vn 0.951057 0.309017 0.000000
vn 0.951057 0.309017 0.000000
vn 0.809017 0.587785 0.000000
vn 0.809017 0.587785 0.000000
vn 0.809017 0.587785 0.000000
vn 0.809017 0.587785 0.000000
vn 0.774401 0.562635 0.289387
vn 0.774401 0.562635 0.289387
vn 0.910362 0.295793 0.289391
vn 0.910362 0.295793 0.289391
vn 0.562635 0.774403 0.289383
vn 0.562635 0.774403 0.289383
vn 0.957212 -0.000001 0.289388
vn 0.957212 -0.000001 0.289388
vn 0.774401 0.562635 -0.289387
vn 0.774401 0.562635 -0.289387
vn 0.562635 0.774403 -0.289383
vn 0.562635 0.774403 -0.289383
vn 0.910362 0.295793 -0.289391
vn 0.910362 0.295793 -0.289391
vn 0.957212 -0.000001 -0.289387
vn 0.957212 -0.000001 -0.289387
vn 0.910362 -0.295795 0.289389
vn 0.910362 -0.295795 0.289389
vn 0.910362 -0.295795 -0.289389
vn 0.910362 -0.295795 -0.289389
vn 0.295794 0.910362 -0.289391
vn 0.295794 0.910362 -0.289391
vn 0.295794 0.910362 0.289391
vn 0.295794 0.910362 0.289391
vn 0.774400 -0.562635 0.289391
vn 0.774400 -0.562635 0.289391
vn 0.774400 -0.562635 -0.289391
vn 0.774400 -0.562635 -0.289391
vn 0.000000 0.957210 -0.289394
vn 0.000000 0.957210 -0.289394
vn 0.000000 0.957210 0.289394
vn 0.000000 0.957210 0.289394
vn 0.562634 -0.774400 0.289394
vn 0.562634 -0.774400 0.289394
vn 0.562634 -0.774400 -0.289394
vn 0.562634 -0.774400 -0.289394
vn -0.295794 0.910363 -0.289388
vn -0.295794 0.910363 -0.289388
vn -0.295794 0.910363 0.289388
vn -0.295794 0.910363 0.289388
vn 0.295794 -0.910361 0.289392
vn 0.295794 -0.910361 0.289392
vn 0.295794 -0.910361 -0.289392
vn 0.295794 -0.910361 -0.289392
vn -0.562637 0.774401 -0.289383
vn -0.562637 0.774402 -0.289383
vn -0.562636 0.774402 0.289383
vn -0.562636 0.774401 0.289383
vn 0.000001 -0.957211 0.289389
vn 0.000001 -0.957211 0.289389
vn 0.000001 -0.957211 -0.289389
vn 0.000001 -0.957211 -0.289389
vn -0.774401 0.562635 -0.289387
vn -0.774401 0.562635 -0.289387
vn -0.774401 0.562635 0.289387
vn -0.774401 0.562635 0.289387
vn -0.295795 -0.910362 0.289389
vn -0.295795 -0.910362 0.289389
vn -0.295795 -0.910362 -0.289389
vn -0.295795 -0.910362 -0.289389
vn -0.910362 0.295794 -0.289390
vn -0.910362 0.295794 -0.289390
vn -0.910362 0.295795 0.289390
vn -0.910362 0.295794 0.289390
vn -0.562635 -0.774401 0.289388
vn -0.562635 -0.774401 0.289388
vn -0.562635 -0.774401 -0.289388
vn -0.562635 -0.774401 -0.289388
vn -0.957213 0.000000 -0.289385
vn -0.957213 -0.000000 -0.289385
vn -0.957213 -0.000000 0.289385
vn -0.957213 0.000000 0.289385
vn -0.774400 -0.562636 0.289389
vn -0.774400 -0.562636 0.289389
vn -0.774400 -0.562636 -0.289390
vn -0.774400 -0.562635 -0.289390
vn -0.910362 -0.295795 -0.289389
vn -0.910362 -0.295795 -0.289389
vn -0.910363 -0.295795 0.289388
vn -0.910363 -0.295795 0.289388
vn 0.809017 0.587786 0.000000
vn 0.809017 0.587786 0.000000
vn 0.951057 0.309016 0.000000
vn 0.951057 0.309016 0.000000
vn 1.000000 -0.000001 0.000000
vn 1.000000 -0.000001 0.000000
vn 0.099249 0.072108 -0.992447
vn 0.116674 0.037910 -0.992446
vn 0.020425 0.006636 -0.999769
vn 0.017374 0.012623 -0.999769
vn 0.587785 0.809018 0.000000
vn 0.587785 0.809018 0.000000
vn 0.083507 0.060672 0.994658
vn 0.015113 0.010980 0.999825
vn 0.017766 0.005772 0.999825
vn 0.098169 0.031897 0.994658
vn 0.951057 -0.309017 0.000000
vn 0.951057 -0.309017 0.000000
vn 0.122679 -0.000000 -0.992446
vn 0.021476 -0.000000 -0.999769
vn 0.018680 -0.000000 0.999826
vn 0.103221 -0.000000 0.994659
vn 0.012623 0.017374 -0.999769
vn 0.072108 0.099249 -0.992447
vn 0.309017 0.951057 0.000000
vn 0.309017 0.951057 0.000000
vn 0.060671 0.083507 0.994658
vn 0.010980 0.015113 0.999825
vn 0.809017 -0.587786 0.000000
vn 0.809017 -0.587786 0.000000
vn 0.116674 -0.037910 -0.992446
vn 0.020425 -0.006636 -0.999769
vn 0.017766 -0.005772 0.999825
vn 0.098169 -0.031897 0.994658
vn 0.006636 0.020425 -0.999769
vn 0.037910 0.116674 -0.992447
vn 0.000000 1.000000 0.000000
vn 0.000000 1.000000 0.000000
vn 0.031897 0.098169 0.994659
vn 0.005772 0.017766 0.999826
vn 0.587785 -0.809017 0.000000
vn 0.587785 -0.809017 0.000000
vn 0.099249 -0.072109 -0.992446
vn 0.017374 -0.012623 -0.999769
vn 0.015113 -0.010980 0.999825
vn 0.083507 -0.060672 0.994659
vn -0.000000 0.021476 -0.999769
vn -0.000000 0.122679 -0.992446
vn -0.309017 0.951057 0.000000
vn -0.309017 0.951057 0.000000
vn -0.000000 0.103221 0.994658
vn -0.000000 0.018680 0.999826
vn 0.309017 -0.951057 0.000000
vn 0.309017 -0.951057 0.000000
vn 0.072109 -0.099249 -0.992446
vn 0.012623 -0.017374 -0.999769
vn 0.010980 -0.015113 0.999826
vn 0.060672 -0.083507 0.994658
vn -0.006636 0.020425 -0.999769
vn -0.037910 0.116674 -0.992446
vn -0.587786 0.809017 0.000000
vn -0.587786 0.809017 0.000000
vn -0.031897 0.098169 0.994658
vn -0.005772 0.017766 0.999825
vn 0.000000 -1.000000 0.000000
vn 0.000000 -1.000000 0.000000
vn 0.037910 -0.116674 -0.992446
vn 0.006636 -0.020424 -0.999769
vn 0.005772 -0.017766 0.999826
vn 0.031897 -0.098169 0.994658
vn -0.012623 0.017374 -0.999769
vn -0.072109 0.099249 -0.992447
vn -0.809017 0.587785 0.000000
vn -0.809017 0.587785 0.000000
vn -0.060672 0.083507 0.994659
vn -0.010980 0.015113 0.999826
vn -0.309017 -0.951057 0.000000
vn -0.309017 -0.951057 0.000000
vn 0.000000 -0.122679 -0.992446
vn 0.000000 -0.021476 -0.999769
vn 0.000000 -0.018680 0.999825
vn 0.000000 -0.103221 0.994658
vn -0.017374 0.012623 -0.999769
vn -0.099249 0.072109 -0.992446
vn -0.951057 0.309017 0.000000
vn -0.951057 0.309017 0.000000
vn -0.083507 0.060672 0.994659
vn -0.015113 0.010980 0.999825
vn -0.587785 -0.809017 0.000000
vn -0.587785 -0.809017 0.000000
vn -0.037910 -0.116674 -0.992446
vn -0.006636 -0.020425 -0.999769
vn -0.005772 -0.017766 0.999825
vn -0.031897 -0.098169 0.994659
vn -0.020424 0.006636 -0.999769
vn -0.116674 0.037910 -0.992446
vn -1.000000 0.000000 0.000000
vn -1.000000 0.000000 0.000000
vn -0.098168 0.031897 0.994658
vn -0.017766 0.005772 0.999825
vn -0.809017 -0.587786 0.000000
vn -0.809017 -0.587786 0.000000
vn -0.072109 -0.099249 -0.992447
vn -0.012623 -0.017374 -0.999769
vn -0.010980 -0.015113 0.999826
vn -0.060672 -0.083507 0.994658
vn -0.021476 0.000000 -0.999769
vn -0.122678 0.000000 -0.992446
vn -0.951057 -0.309017 0.000000
vn -0.951057 -0.309017 0.000000
vn -0.103220 -0.000000 0.994658
vn -0.018680 -0.000000 0.999825
vn -0.099249 -0.072109 -0.992446
vn -0.017374 -0.012623 -0.999769
vn -0.015113 -0.010980 0.999826
vn -0.083507 -0.060672 0.994659
vn -0.020424 -0.006636 -0.999769
vn -0.116674 -0.037910 -0.992447
vn -0.098169 -0.031897 0.994658
vn -0.017766 -0.005772 0.999825
vn -0.083507 -0.060671 0.994659
vn -0.098169 -0.031897 0.994659
vn -0.103221 0.000000 0.994658
vn -0.098169 0.031897 0.994659
vn -0.083507 0.060672 0.994659
vn -0.060671 0.083507 0.994659
vn -0.031897 0.098169 0.994659
vn -0.000000 0.103221 0.994659
vn 0.031897 0.098169 0.994659
vn 0.060672 0.083507 0.994659
vn 0.083507 0.060672 0.994658
vn 0.098169 0.031897 0.994658
vn 0.103221 -0.000000 0.994659
vn 0.098169 -0.031897 0.994659
vn 0.083507 -0.060672 0.994658
vn 0.060672 -0.083507 0.994659
vn 0.031897 -0.098169 0.994658
vn -0.000000 -0.103221 0.994658
vn -0.031897 -0.098169 0.994658
vn -0.060672 -0.083507 0.994659
vn -0.116674 -0.037910 -0.992447
vn -0.099249 -0.072109 -0.992446
vn -0.072109 -0.099249 -0.992446
vn -0.037910 -0.116674 -0.992447
vn -0.000000 -0.122679 -0.992446
vn 0.037910 -0.116674 -0.992446
vn 0.072109 -0.099249 -0.992446
vn 0.099249 -0.072109 -0.992446
vn 0.116674 -0.037910 -0.992446
vn 0.122678 0.000000 -0.992447
vn 0.116674 0.037910 -0.992446
vn 0.099249 0.072109 -0.992447
vn 0.072109 0.099249 -0.992446
vn 0.037910 0.116674 -0.992447
vn -0.000000 0.122678 -0.992447
vn -0.037910 0.116674 -0.992447
vn -0.072109 0.099249 -0.992446
vn -0.099249 0.072109 -0.992446
vn -0.116674 0.037910 -0.992447
vn -0.122678 0.000000 -0.992446
s 1
g Tombstone1 Props polySurface1
usemtl initialShadingGroup
f 45/69/105 46/70/106 48/71/107 47/72/108
f 45/69/105 47/72/108 52/73/109 51/74/110
s 2
f 46/75/111 49/76/112 50/77/113 48/78/114
s 1
f 51/74/110 52/73/109 56/82/115 55/79/116
s 2
f 49/76/112 53/80/117 54/81/118 50/77/113
s 3
f 55/79/119 56/82/120 60/83/121 59/84/122
s 2
f 53/80/117 57/85/123 58/86/124 54/81/118
s 3
f 59/84/122 60/83/121 64/90/125 63/87/126
s 2
f 57/85/123 61/88/127 62/89/128 58/86/124
s off
f 63/87/129 64/90/130 68/93/131 67/91/132
s 2
f 61/88/127 65/95/133 66/92/134 62/89/128
s off
f 67/91/135 68/93/136 72/98/137 71/94/138
s 4
f 65/95/139 69/96/140 70/97/141 66/92/142
s 5
f 71/94/143 72/98/144 76/99/145 75/100/146
s 4
f 69/96/140 73/104/147 74/101/148 70/97/141
s 5
f 75/100/146 76/99/145 80/102/149 79/103/150
s 6
f 73/104/151 77/105/152 78/106/153 74/101/154
s 5
f 79/103/150 80/102/149 84/107/155 83/108/156
s 6
f 77/105/152 81/110/157 82/109/158 78/106/153
s 5
f 81/110/159 83/108/156 84/107/155 82/109/160
s 7
f 85/200/161 86/111/162 88/112/163 87/194/164
f 86/113/162 85/200/161 99/212/165 100/114/166
f 87/115/164 88/116/163 94/117/167 93/195/168
s 8
f 89/193/169 90/118/170 98/119/171 97/199/172
f 90/120/170 89/193/169 91/121/173 92/122/174
f 92/123/174 91/196/173 95/204/175 96/124/176
s 7
f 93/195/168 94/125/167 102/126/177 101/203/178
s 8
f 96/127/176 95/204/175 103/215/179 104/128/180
f 97/199/172 98/129/171 106/130/181 105/211/182
s 7
f 100/131/166 99/212/165 107/224/183 108/132/184
f 101/203/178 102/133/177 110/134/185 109/216/186
s 8
f 104/135/180 103/215/179 111/227/187 112/136/188
f 105/211/182 106/137/181 114/138/189 113/223/190
s 7
f 108/139/184 107/224/183 115/236/191 116/140/192
f 109/216/186 110/141/185 118/142/193 117/228/194
s 8
f 112/143/188 111/227/187 119/239/195 120/144/196
f 113/223/190 114/145/189 122/146/197 121/235/198
s 7
f 116/147/192 115/236/191 123/248/199 124/148/200
f 117/228/194 118/149/193 126/150/201 125/240/202
s 8
f 120/151/196 119/239/195 127/251/203 128/152/204
f 121/235/198 122/153/197 130/154/205 129/247/206
s 7
f 124/155/200 123/248/199 131/260/207 132/156/208
f 125/240/202 126/157/201 134/158/209 133/252/210
s 8
f 128/159/204 127/251/203 135/263/211 136/160/212
f 129/247/206 130/161/205 138/162/213 137/259/214
s 7
f 132/163/208 131/260/207 139/272/215 140/164/216
f 133/252/210 134/165/209 142/166/217 141/264/218
s 8
f 136/167/212 135/263/211 143/275/219 144/168/220
f 137/259/214 138/169/213 146/170/221 145/271/222
s 7
f 140/171/216 139/272/215 147/284/223 148/172/224
f 141/264/218 142/173/217 150/174/225 149/276/226
s 8
f 144/175/220 143/275/219 151/287/227 152/176/228
f 145/271/222 146/177/221 154/178/229 153/283/230
s 7
f 148/179/224 147/284/223 155/296/231 156/180/232
f 149/276/226 150/181/225 158/182/233 157/288/234
s 8
f 152/183/228 151/287/227 159/299/235 160/184/236
f 153/283/230 154/185/229 162/186/237 161/295/238
s 7
f 156/187/232 155/296/231 163/300/239 164/188/240
f 157/288/234 158/189/233 164/190/240 163/300/239
s 8
f 160/191/236 159/299/235 161/295/238 162/192/237
s 9
f 89/193/241 85/200/242 87/194/243 91/121/244
f 87/115/243 93/195/245 95/204/246 91/196/244
s 10
f 90/209/247 92/197/248 185/333/249 186/334/250
s 9
f 89/193/241 97/199/251 99/212/252 85/200/242
s 11
f 86/201/253 165/313/254 166/314/255 88/207/256
s 9
f 93/195/245 101/203/257 103/215/258 95/204/246
s 10
f 92/197/248 96/205/259 204/352/260 185/333/249
s 11
f 88/207/256 166/314/255 167/315/261 94/219/262
s 10
f 90/209/247 186/334/250 187/335/263 98/221/264
s 9
f 97/199/251 105/211/265 107/224/266 99/212/252
s 11
f 86/201/253 100/213/267 184/332/268 165/313/254
s 9
f 103/215/258 101/203/257 109/216/269 111/227/270
s 10
f 96/205/259 104/217/271 203/351/272 204/352/260
s 11
f 94/219/262 167/315/261 168/316/273 102/231/274
s 10
f 98/221/264 187/335/263 188/336/275 106/233/276
s 9
f 105/211/265 113/223/277 115/236/278 107/224/266
s 11
f 100/213/267 108/225/279 183/331/280 184/332/268
s 9
f 111/227/270 109/216/269 117/228/281 119/239/282
s 10
f 104/217/271 112/229/283 202/350/284 203/351/272
s 11
f 102/231/274 168/316/273 169/317/285 110/243/286
s 10
f 106/233/276 188/336/275 189/337/287 114/245/288
s 9
f 113/223/277 121/235/289 123/248/290 115/236/278
s 11
f 108/225/279 116/237/291 182/330/292 183/331/280
s 9
f 119/239/282 117/228/281 125/240/293 127/251/294
s 10
f 112/229/283 120/241/295 201/349/296 202/350/284
s 11
f 110/243/286 169/317/285 170/318/297 118/255/298
s 10
f 114/245/288 189/337/287 190/338/299 122/257/300
s 9
f 121/235/289 129/247/301 131/260/302 123/248/290
s 11
f 116/237/291 124/249/303 181/329/304 182/330/292
s 9
f 127/251/294 125/240/293 133/252/305 135/263/306
s 10
f 120/241/295 128/253/307 200/348/308 201/349/296
s 11
f 118/255/298 170/318/297 171/319/309 126/267/310
s 10
f 122/257/300 190/338/299 191/339/311 130/269/312
s 9
f 129/247/301 137/259/313 139/272/314 131/260/302
s 11
f 124/249/303 132/261/315 180/328/316 181/329/304
s 9
f 135/263/306 133/252/305 141/264/317 143/275/318
s 10
f 128/253/307 136/265/319 199/347/320 200/348/308
s 11
f 126/267/310 171/319/309 172/320/321 134/279/322
s 10
f 130/269/312 191/339/311 192/340/323 138/281/324
s 9
f 137/259/313 145/271/325 147/284/326 139/272/314
s 11
f 132/261/315 140/273/327 179/327/328 180/328/316
s 9
f 143/275/318 141/264/317 149/276/329 151/287/330
s 10
f 136/265/319 144/277/331 198/346/332 199/347/320
s 11
f 134/279/322 172/320/321 173/321/333 142/291/334
s 10
f 138/281/324 192/340/323 193/341/335 146/293/336
s 9
f 145/271/325 153/283/337 155/296/338 147/284/326
s 11
f 140/273/327 148/285/339 178/326/340 179/327/328
s 9
f 151/287/330 149/276/329 157/288/341 159/299/342
s 10
f 144/277/331 152/289/343 197/345/344 198/346/332
s 11
f 142/291/334 173/321/333 174/322/345 150/303/346
s 10
f 146/293/336 193/341/335 194/342/347 154/305/348
s 9
f 153/283/337 161/295/349 163/300/350 155/296/338
s 11
f 148/285/339 156/297/351 177/325/352 178/326/340
s 9
f 159/299/342 157/288/341 163/300/350 161/295/349
s 10
f 152/289/343 160/301/353 196/344/354 197/345/344
s 11
f 150/303/346 174/322/345 175/323/355 158/311/356
s 10
f 154/305/348 194/342/347 195/343/357 162/309/358
s 11
f 156/297/351 164/307/359 176/324/360 177/325/352
s 10
f 160/301/353 162/309/358 195/343/357 196/344/354
s 11
f 158/311/356 175/323/355 176/324/360 164/307/359
f 166/314/255 165/313/254 47/214/361 48/202/362
f 167/315/261 166/314/255 48/202/362 50/208/363
f 168/316/273 167/315/261 50/208/363 54/220/364
f 169/317/285 168/316/273 54/220/364 58/232/365
f 170/318/297 169/317/285 58/232/365 62/244/366
f 171/319/309 170/318/297 62/244/366 66/256/367
f 172/320/321 171/319/309 66/256/367 70/268/368
f 173/321/333 172/320/321 70/268/368 74/280/369
f 174/322/345 173/321/333 74/280/369 78/292/370
f 175/323/355 174/322/345 78/292/370 82/304/371
f 176/324/360 175/323/355 82/304/371 84/312/372
f 177/325/352 176/324/360 84/312/372 80/308/373
f 178/326/340 177/325/352 80/308/373 76/298/374
f 179/327/328 178/326/340 76/298/374 72/286/375
f 180/328/316 179/327/328 72/286/375 68/274/376
f 181/329/304 180/328/316 68/274/376 64/262/377
f 182/330/292 181/329/304 64/262/377 60/250/378
f 183/331/280 182/330/292 60/250/378 56/238/379
f 184/332/268 183/331/280 56/238/379 52/226/380
f 165/313/254 184/332/268 52/226/380 47/214/361
s 10
f 186/334/250 185/333/249 46/206/381 45/198/382
f 187/335/263 186/334/250 45/198/382 51/210/383
f 188/336/275 187/335/263 51/210/383 55/222/384
f 189/337/287 188/336/275 55/222/384 59/234/385
f 190/338/299 189/337/287 59/234/385 63/246/386
f 191/339/311 190/338/299 63/246/386 67/258/387
f 192/340/323 191/339/311 67/258/387 71/270/388
f 193/341/335 192/340/323 71/270/388 75/282/389
f 194/342/347 193/341/335 75/282/389 79/294/390
f 195/343/357 194/342/347 79/294/390 83/306/391
f 196/344/354 195/343/357 83/306/391 81/310/392
f 197/345/344 196/344/354 81/310/392 77/302/393
f 198/346/332 197/345/344 77/302/393 73/290/394
f 199/347/320 198/346/332 73/290/394 69/278/395
f 200/348/308 199/347/320 69/278/395 65/266/396
f 201/349/296 200/348/308 65/266/396 61/254/397
f 202/350/284 201/349/296 61/254/397 57/242/398
f 203/351/272 202/350/284 57/242/398 53/230/399
f 204/352/260 203/351/272 53/230/399 49/218/400
f 185/333/249 204/352/260 49/218/400 46/206/381
g default
v -30.225007 1.804790 0.396977
v -29.423579 1.804790 0.396977
v -30.225007 1.804790 -0.404451
v -29.423579 1.804790 -0.404451
v -30.225007 1.991696 0.396977
v -30.192799 2.111898 0.364769
v -30.104804 2.199892 0.276775
v -29.984602 2.232100 0.156573
v -29.663983 2.232100 0.156573
v -29.543780 2.199892 0.276775
v -29.455786 2.111898 0.364769
v -29.423579 1.991696 0.396977
v -29.984602 2.232100 -0.164047
v -30.104804 2.199892 -0.284249
v -30.192799 2.111898 -0.372243
v -30.225007 1.991696 -0.404451
v -29.663983 2.232100 -0.164047
v -29.543780 2.199892 -0.284249
v -29.455786 2.111898 -0.372243
v -29.423579 1.991696 -0.404451
vt 0.625000 0.750000
vt 0.375000 1.000000
vt 0.625000 1.000000
vt 0.625000 0.000000
vt 0.375000 0.109350
vt 0.449993 0.324993
vt 0.550008 0.324993
vt 0.550008 0.425007
vt 0.625000 0.640650
vt 0.375000 0.750000
vt 0.875000 0.000000
vt 0.625000 0.109351
vt 0.125000 0.000000
vt 0.375000 0.000000
vt 0.125000 0.109350
vt 0.875000 0.109350
vt 0.375000 0.640650
vt 0.449993 0.425007
vt 0.375000 0.250000
vt 0.416559 0.291559
vt 0.583441 0.291559
vt 0.625000 0.250000
vt 0.416559 0.458441
vt 0.375000 0.500000
vt 0.125000 0.250000
vt 0.583441 0.458441
vt 0.625000 0.500000
vt 0.875000 0.250000
vn 0.000000 -1.000000 0.000000
vn 0.000000 -1.000000 0.000000
vn 0.000000 -1.000000 0.000000
vn 0.000000 -1.000000 0.000000
vn -0.080069 0.993568 0.080069
vn -0.131632 0.982520 0.131632
vn 0.131632 0.982520 0.131632
vn 0.080069 0.993568 0.080069
vn 0.000000 0.707107 0.707107
vn 0.000000 0.707107 0.707107
vn 0.000000 0.707107 0.707107
vn 0.000000 0.707107 0.707107
vn 0.000000 0.258819 0.965926
vn 0.000000 0.095968 0.995384
vn 0.000000 0.095968 0.995384
vn 0.000000 0.258819 0.965926
vn 0.000000 0.000000 1.000000
vn 0.000000 0.000000 1.000000
vn 0.080069 0.993568 -0.080069
vn -0.080069 0.993568 -0.080069
vn 0.000000 0.095968 -0.995384
vn 0.000000 0.095968 -0.995384
vn 0.000000 0.000000 -1.000000
vn 0.000000 0.000000 -1.000000
vn 1.000000 0.000000 0.000000
vn 1.000000 0.000000 0.000000
vn 0.995384 0.095967 0.000000
vn 0.995384 0.095967 0.000000
vn -1.000000 0.000000 0.000000
vn -1.000000 0.000000 0.000000
vn -0.995384 0.095968 0.000000
vn -0.995384 0.095968 0.000000
vn 0.965927 0.258816 0.000000
vn 0.965927 0.258816 0.000000
vn 0.131632 0.982520 -0.131632
vn 0.707107 0.707106 0.000000
vn 0.707107 0.707106 0.000000
vn 0.707107 0.707106 0.000000
vn 0.707107 0.707106 0.000000
vn -0.965926 0.258819 0.000000
vn -0.965926 0.258819 0.000000
vn -0.707104 0.707109 0.000000
vn -0.707104 0.707109 0.000000
vn -0.707104 0.707109 0.000000
vn -0.707104 0.707109 0.000000
vn -0.131632 0.982520 -0.131632
vn 0.000000 0.258819 -0.965926
vn 0.000000 0.258819 -0.965926
vn 0.000000 0.707107 -0.707107
vn 0.000000 0.707107 -0.707107
vn 0.000000 0.707107 -0.707107
vn 0.000000 0.707107 -0.707107
s off
g Tombstone1 Props pCube6
usemtl initialShadingGroup
f 207/362/401 208/353/402 206/355/403 205/354/404
s 1
f 212/358/405 211/372/406 214/373/407 213/359/408
s off
f 211/372/409 210/371/410 215/374/411 214/373/412
s 2
f 210/371/413 209/357/414 216/364/415 215/374/416
f 205/366/417 206/356/418 216/364/415 209/357/414
s 1
f 212/358/405 213/359/408 221/360/419 217/370/420
s 3
f 220/369/421 224/361/422 208/353/423 207/362/424
s 4
f 206/356/425 208/363/426 224/368/427 216/364/428
s 5
f 207/365/429 205/366/430 209/357/431 220/367/432
s 4
f 215/374/433 216/364/428 224/368/427 223/380/434
s 1
f 213/359/408 214/373/407 222/378/435 221/360/419
s off
f 214/373/436 215/374/437 223/379/438 222/378/439
s 5
f 209/357/431 210/371/440 219/377/441 220/367/432
s off
f 210/371/442 211/372/443 218/375/444 219/376/445
s 1
f 211/372/406 212/358/405 217/370/420 218/375/446
s 3
f 220/369/421 219/376/447 223/379/448 224/361/422
s off
f 219/376/449 218/375/450 222/378/451 223/379/452
s 1
f 218/375/446 217/370/420 221/360/419 222/378/435
g default
v -29.832555 3.602661 0.046959
v -29.832555 3.466480 0.046959
v -28.617823 3.552138 0.022507
v -28.617823 3.517003 0.022507
v -28.617823 3.552138 -0.022507
v -28.617823 3.517003 -0.022507
v -29.832555 3.602661 -0.046959
v -29.832555 3.466480 -0.046959
v -29.236515 3.657235 0.084596
v -29.236515 3.657235 -0.084596
v -29.236515 3.411906 -0.084596
v -29.236515 3.411906 0.084596
v -28.938495 3.683384 -0.102630
v -28.938495 3.683384 0.102630
v -28.938495 3.385757 0.102630
v -28.938495 3.385757 -0.102630
v -28.789486 3.717699 -0.104970
v -28.789486 3.717699 0.104970
v -28.789486 3.351442 0.104970
v -28.789486 3.351442 -0.104970
v -28.714981 3.654784 -0.072040
v -28.714981 3.654784 0.072040
v -28.714981 3.414356 0.072040
v -28.714981 3.414356 -0.072040
v -28.863990 3.634842 0.069153
v -28.863990 3.634842 -0.069153
v -28.863990 3.434298 -0.069153
v -28.863990 3.434298 0.069153
vt 0.375000 0.000000
vt 0.625000 0.000000
vt 0.375000 0.250000
vt 0.625000 0.250000
vt 0.375000 0.500000
vt 0.625000 0.500000
vt 0.375000 0.750000
vt 0.625000 0.750000
vt 0.375000 1.000000
vt 0.625000 1.000000
vt 0.875000 0.000000
vt 0.875000 0.250000
vt 0.125000 0.000000
vt 0.125000 0.250000
vt 0.375000 0.125000
vt 0.125000 0.125000
vt 0.375000 0.625000
vt 0.625000 0.625000
vt 0.875000 0.125000
vt 0.625000 0.125000
vt 0.125000 0.187500
vt 0.375000 0.562500
vt 0.375000 0.187500
vt 0.625000 0.187500
vt 0.625000 0.562500
vt 0.875000 0.187500
vt 0.125000 0.218750
vt 0.375000 0.531250
vt 0.375000 0.218750
vt 0.625000 0.218750
vt 0.625000 0.531250
vt 0.875000 0.218750
vt 0.125000 0.234375
vt 0.375000 0.515625
vt 0.375000 0.234375
vt 0.625000 0.234375
vt 0.625000 0.515625
vt 0.875000 0.234375
vt 0.375000 0.203125
vt 0.125000 0.203125
vt 0.375000 0.546875
vt 0.625000 0.546875
vt 0.875000 0.203125
vt 0.625000 0.203125
vn -0.063021 0.000000 0.998012
vn -0.063021 0.000000 0.998012
vn -0.061504 0.000000 0.998107
vn -0.061504 0.000000 0.998107
vn 1.000000 -0.000000 0.000000
vn 1.000000 -0.000000 0.000000
vn 1.000000 -0.000000 0.000000
vn 1.000000 -0.000000 0.000000
vn -0.061504 0.000000 -0.998107
vn -0.061504 0.000000 -0.998107
vn -0.063021 0.000000 -0.998012
vn -0.063021 0.000000 -0.998012
vn -1.000000 0.000000 0.000000
vn -1.000000 0.000000 0.000000
vn -1.000000 0.000000 0.000000
vn -1.000000 0.000000 0.000000
vn -0.091180 -0.995834 0.000000
vn -0.091180 -0.995834 0.000000
vn -0.088996 -0.996032 0.000000
vn -0.088996 -0.996032 0.000000
vn -0.091180 0.995834 0.000000
vn -0.091180 0.995834 0.000000
vn -0.088996 0.996032 0.000000
vn -0.088996 0.996032 0.000000
vn 0.666408 0.745587 0.000000
vn 0.666408 0.745587 0.000000
vn 0.726260 0.687420 0.000000
vn 0.726260 0.687420 0.000000
vn 0.454197 -0.000000 -0.890901
vn 0.454197 -0.000000 -0.890901
vn 0.410908 -0.000000 -0.911677
vn 0.410908 -0.000000 -0.911677
vn 0.666408 -0.745587 0.000000
vn 0.666408 -0.745587 0.000000
vn 0.726260 -0.687420 0.000000
vn 0.726260 -0.687420 0.000000
vn 0.410908 -0.000000 0.911677
vn 0.410908 -0.000000 0.911677
vn 0.454197 -0.000000 0.890901
vn 0.454197 -0.000000 0.890901
vn 0.019192 0.999816 0.000000
vn 0.019192 0.999816 0.000000
vn 0.013237 -0.000000 0.999912
vn 0.013237 -0.000000 0.999912
vn 0.019192 -0.999816 0.000000
vn 0.019192 -0.999816 0.000000
vn 0.013237 -0.000000 -0.999912
vn 0.013237 -0.000000 -0.999912
vn -0.189773 0.981828 0.000000
vn -0.189773 0.981828 0.000000
vn -0.066911 0.000000 0.997759
vn -0.066911 0.000000 0.997759
vn -0.189773 -0.981828 0.000000
vn -0.189773 -0.981828 0.000000
vn -0.066911 0.000000 -0.997759
vn -0.066911 0.000000 -0.997759
vn -0.166926 0.985969 0.000000
vn -0.166926 0.985969 0.000000
vn 0.030555 -0.000000 0.999533
vn 0.030555 -0.000000 0.999533
vn -0.166926 -0.985969 0.000000
vn -0.166926 -0.985969 0.000000
vn 0.030555 -0.000000 -0.999533
vn 0.030555 -0.000000 -0.999533
s 1
g Tombstone1 Props pCube4
usemtl initialShadingGroup
f 225/381/453 226/382/454 236/400/455 233/395/456
s off
f 227/383/457 228/384/458 230/386/459 229/385/460
s 2
f 234/397/461 235/398/462 232/388/463 231/387/464
s off
f 231/387/465 232/388/466 226/390/467 225/389/468
s 3
f 226/382/469 232/391/470 235/399/471 236/400/472
s 4
f 231/393/473 225/381/474 233/395/475 234/396/476
f 245/413/477 246/415/478 227/383/479 229/394/480
s 2
f 229/385/481 230/386/482 248/417/483 245/414/484
s 3
f 247/416/485 248/418/486 230/392/487 228/384/488
s 1
f 246/415/489 247/416/490 228/384/491 227/383/492
s 4
f 234/396/476 233/395/475 238/403/493 237/401/494
s 1
f 233/395/456 236/400/455 239/404/495 238/403/496
s 3
f 236/400/472 235/399/471 240/406/497 239/404/498
s 2
f 237/402/499 240/405/500 235/398/462 234/397/461
s 4
f 237/401/494 238/403/493 249/419/501 250/420/502
s 1
f 238/403/496 239/404/495 252/424/503 249/419/504
s 3
f 239/404/498 240/406/497 251/423/505 252/424/506
s 2
f 250/421/507 251/422/508 240/405/500 237/402/499
s 4
f 241/407/509 242/409/510 246/415/478 245/413/477
s 1
f 242/409/511 243/410/512 247/416/490 246/415/489
s 3
f 243/410/513 244/412/514 248/418/486 247/416/485
s 2
f 245/414/484 248/417/483 244/411/515 241/408/516
s 4
f 250/420/502 249/419/501 242/409/510 241/407/509
s 2
f 241/408/516 244/411/515 251/422/508 250/421/507
s 3
f 252/424/506 251/423/505 244/412/514 243/410/513
s 1
f 249/419/504 252/424/503 243/410/512 242/409/511
g default
v -29.812715 3.466480 0.046959
v -29.812715 3.602661 0.046959
v -31.027447 3.517003 0.022507
v -31.027447 3.552138 0.022507
v -31.027447 3.517003 -0.022507
v -31.027447 3.552138 -0.022507
v -29.812715 3.466480 -0.046959
v -29.812715 3.602661 -0.046959
v -30.408755 3.411906 0.084596
v -30.408755 3.411906 -0.084596
v -30.408755 3.657235 -0.084596
v -30.408755 3.657235 0.084596
v -30.706775 3.385757 -0.102630
v -30.706775 3.385757 0.102630
v -30.706775 3.683384 0.102630
v -30.706775 3.683384 -0.102630
v -30.855784 3.351442 -0.104970
v -30.855784 3.351442 0.104970
v -30.855784 3.717699 0.104970
v -30.855784 3.717699 -0.104970
v -30.930289 3.414356 -0.072040
v -30.930289 3.414356 0.072040
v -30.930289 3.654784 0.072040
v -30.930289 3.654784 -0.072040
v -30.781279 3.434298 0.069153
v -30.781279 3.434298 -0.069153
v -30.781279 3.634842 -0.069153
v -30.781279 3.634842 0.069153
vt 0.375000 0.000000
vt 0.625000 0.000000
vt 0.375000 0.250000
vt 0.625000 0.250000
vt 0.375000 0.500000
vt 0.625000 0.500000
vt 0.375000 0.750000
vt 0.625000 0.750000
vt 0.375000 1.000000
vt 0.625000 1.000000
vt 0.875000 0.000000
vt 0.875000 0.250000
vt 0.125000 0.000000
vt 0.125000 0.250000
vt 0.375000 0.125000
vt 0.125000 0.125000
vt 0.375000 0.625000
vt 0.625000 0.625000
vt 0.875000 0.125000
vt 0.625000 0.125000
vt 0.125000 0.187500
vt 0.375000 0.562500
vt 0.375000 0.187500
vt 0.625000 0.187500
vt 0.625000 0.562500
vt 0.875000 0.187500
vt 0.125000 0.218750
vt 0.375000 0.531250
vt 0.375000 0.218750
vt 0.625000 0.218750
vt 0.625000 0.531250
vt 0.875000 0.218750
vt 0.125000 0.234375
vt 0.375000 0.515625
vt 0.375000 0.234375
vt 0.625000 0.234375
vt 0.625000 0.515625
vt 0.875000 0.234375
vt 0.375000 0.203125
vt 0.125000 0.203125
vt 0.375000 0.546875
vt 0.625000 0.546875
vt 0.875000 0.203125
vt 0.625000 0.203125
vn 0.063021 0.000000 0.998012
vn 0.063021 0.000000 0.998012
vn 0.061504 0.000000 0.998107
vn 0.061504 0.000000 0.998107
vn -1.000000 -0.000000 0.000000
vn -1.000000 -0.000000 0.000000
vn -1.000000 -0.000000 0.000000
vn -1.000000 -0.000000 0.000000
vn 0.061504 0.000000 -0.998107
vn 0.061504 0.000000 -0.998107
vn 0.063021 0.000000 -0.998012
vn 0.063021 0.000000 -0.998012
vn 1.000000 0.000000 0.000000
vn 1.000000 0.000000 0.000000
vn 1.000000 0.000000 0.000000
vn 1.000000 0.000000 0.000000
vn 0.091180 0.995834 0.000000
vn 0.091180 0.995834 0.000000
vn 0.088996 0.996032 0.000000
vn 0.088996 0.996032 0.000000
vn 0.091180 -0.995834 0.000000
vn 0.091180 -0.995834 0.000000
vn 0.088996 -0.996032 0.000000
vn 0.088996 -0.996032 0.000000
vn -0.666408 -0.745587 0.000000
vn -0.666408 -0.745587 0.000000
vn -0.726260 -0.687420 0.000000
vn -0.726260 -0.687420 0.000000
vn -0.454197 -0.000000 -0.890901
vn -0.454197 -0.000000 -0.890901
vn -0.410908 -0.000000 -0.911677
vn -0.410908 -0.000000 -0.911677
vn -0.666408 0.745587 0.000000
vn -0.666408 0.745587 0.000000
vn -0.726260 0.687420 0.000000
vn -0.726260 0.687420 0.000000
vn -0.410908 -0.000000 0.911677
vn -0.410908 -0.000000 0.911677
vn -0.454197 -0.000000 0.890901
vn -0.454197 -0.000000 0.890901
vn -0.019192 -0.999816 0.000000
vn -0.019192 -0.999816 0.000000
vn -0.013237 -0.000000 0.999912
vn -0.013237 -0.000000 0.999912
vn -0.019192 0.999816 0.000000
vn -0.019192 0.999816 0.000000
vn -0.013237 -0.000000 -0.999912
vn -0.013237 -0.000000 -0.999912
vn 0.189773 -0.981828 0.000000
vn 0.189773 -0.981828 0.000000
vn 0.066911 0.000000 0.997759
vn 0.066911 0.000000 0.997759
vn 0.189773 0.981828 0.000000
vn 0.189773 0.981828 0.000000
vn 0.066911 0.000000 -0.997759
vn 0.066911 0.000000 -0.997759
vn 0.166926 -0.985969 0.000000
vn 0.166926 -0.985969 0.000000
vn -0.030555 -0.000000 0.999533
vn -0.030555 -0.000000 0.999533
vn 0.166926 0.985969 0.000000
vn 0.166926 0.985969 0.000000
vn -0.030555 -0.000000 -0.999533
vn -0.030555 -0.000000 -0.999533
s 1
g Tombstone1 Props pCube3
usemtl initialShadingGroup
f 253/425/517 254/426/518 264/444/519 261/439/520
s off
f 255/427/521 256/428/522 258/430/523 257/429/524
s 2
f 262/441/525 263/442/526 260/432/527 259/431/528
s off
f 259/431/529 260/432/530 254/434/531 253/433/532
s 3
f 254/426/533 260/435/534 263/443/535 264/444/536
s 4
f 259/437/537 253/425/538 261/439/539 262/440/540
f 273/457/541 274/459/542 255/427/543 257/438/544
s 2
f 257/429/545 258/430/546 276/461/547 273/458/548
s 3
f 275/460/549 276/462/550 258/436/551 256/428/552
s 1
f 274/459/553 275/460/554 256/428/555 255/427/556
s 4
f 262/440/540 261/439/539 266/447/557 265/445/558
s 1
f 261/439/520 264/444/519 267/448/559 266/447/560
s 3
f 264/444/536 263/443/535 268/450/561 267/448/562
s 2
f 265/446/563 268/449/564 263/442/526 262/441/525
s 4
f 265/445/558 266/447/557 277/463/565 278/464/566
s 1
f 266/447/560 267/448/559 280/468/567 277/463/568
s 3
f 267/448/562 268/450/561 279/467/569 280/468/570
s 2
f 278/465/571 279/466/572 268/449/564 265/446/563
s 4
f 269/451/573 270/453/574 274/459/542 273/457/541
s 1
f 270/453/575 271/454/576 275/460/554 274/459/553
s 3
f 271/454/577 272/456/578 276/462/550 275/460/549
s 2
f 273/458/548 276/461/547 272/455/579 269/452/580
s 4
f 278/464/566 277/463/565 270/453/574 269/451/573
s 2
f 269/452/580 272/455/579 279/466/572 278/465/571
s 3
f 280/468/570 279/467/569 272/456/578 271/454/577
s 1
f 277/463/568 280/468/567 271/454/576 270/453/575
g default
v -30.042238 2.164752 0.203448
v -29.601981 2.164752 0.203448
v -29.875412 3.413693 0.049263
v -29.768807 3.413693 0.049263
v -29.875412 3.413693 -0.049263
v -29.768807 3.413693 -0.049263
v -30.042238 2.164752 -0.203448
v -29.601981 2.164752 -0.203448
v -29.890919 2.607411 0.063595
v -29.890919 2.607411 -0.063595
v -29.753300 2.607411 -0.063595
v -29.753300 2.607411 0.063595
v -29.913168 2.953653 -0.097187
v -29.913168 2.953653 0.097187
v -29.731051 2.953653 0.097187
v -29.731051 2.953653 -0.097187
v -29.979980 2.386081 0.145907
v -29.979980 2.386081 -0.145907
v -29.664239 2.386081 -0.145907
v -29.664239 2.386081 0.145907
v -29.917226 3.183673 -0.097472
v -29.917226 3.183673 0.097472
v -29.726993 3.183673 0.097472
v -29.726993 3.183673 -0.097472
v -29.883567 2.718076 0.056800
v -29.883567 2.718076 -0.056800
v -29.760652 2.718076 -0.056800
v -29.760652 2.718076 0.056800
v -29.927684 2.496746 -0.097574
v -29.927684 2.496746 0.097574
v -29.716535 2.496746 0.097574
v -29.716535 2.496746 -0.097574
v -30.024745 2.275417 0.187280
v -30.024745 2.275417 -0.187281
v -29.619474 2.275417 -0.187281
v -29.619474 2.275417 0.187280
v -29.928874 3.068663 0.108206
v -29.928874 3.068663 -0.108206
v -29.715344 3.068663 -0.108206
v -29.715344 3.068663 0.108206
vt 0.375000 0.000000
vt 0.625000 0.000000
vt 0.375000 0.250000
vt 0.625000 0.250000
vt 0.375000 0.500000
vt 0.625000 0.500000
vt 0.375000 0.750000
vt 0.625000 0.750000
vt 0.375000 1.000000
vt 0.625000 1.000000
vt 0.875000 0.000000
vt 0.875000 0.250000
vt 0.125000 0.000000
vt 0.125000 0.250000
vt 0.375000 0.125000
vt 0.125000 0.125000
vt 0.375000 0.625000
vt 0.625000 0.625000
vt 0.875000 0.125000
vt 0.625000 0.125000
vt 0.125000 0.187500
vt 0.375000 0.562500
vt 0.375000 0.187500
vt 0.625000 0.187500
vt 0.625000 0.562500
vt 0.875000 0.187500
vt 0.375000 0.062500
vt 0.125000 0.062500
vt 0.375000 0.687500
vt 0.625000 0.687500
vt 0.875000 0.062500
vt 0.625000 0.062500
vt 0.125000 0.218750
vt 0.375000 0.531250
vt 0.375000 0.218750
vt 0.625000 0.218750
vt 0.625000 0.531250
vt 0.875000 0.218750
vt 0.375000 0.156250
vt 0.125000 0.156250
vt 0.375000 0.593750
vt 0.625000 0.593750
vt 0.875000 0.156250
vt 0.625000 0.156250
vt 0.125000 0.093750
vt 0.375000 0.656250
vt 0.375000 0.093750
vt 0.625000 0.093750
vt 0.625000 0.656250
vt 0.875000 0.093750
vt 0.375000 0.031250
vt 0.125000 0.031250
vt 0.375000 0.718750
vt 0.625000 0.718750
vt 0.875000 0.031250
vt 0.625000 0.031250
vt 0.375000 0.203125
vt 0.125000 0.203125
vt 0.375000 0.546875
vt 0.625000 0.546875
vt 0.875000 0.203125
vt 0.625000 0.203125
vn -0.000000 0.195797 0.980644
vn -0.000000 0.195797 0.980644
vn -0.000000 0.144558 0.989496
vn -0.000000 0.144558 0.989496
vn 0.000000 1.000000 0.000000
vn 0.000000 1.000000 0.000000
vn 0.000000 1.000000 0.000000
vn 0.000000 1.000000 0.000000
vn -0.000000 0.144557 -0.989497
vn -0.000000 0.195797 -0.980645
vn -0.000000 0.195797 -0.980645
vn -0.000000 0.144557 -0.989497
vn 0.000000 -1.000000 0.000000
vn 0.000000 -1.000000 0.000000
vn 0.000000 -1.000000 0.000000
vn 0.000000 -1.000000 0.000000
vn 0.987736 0.156132 0.000000
vn 0.987736 0.156132 0.000000
vn 0.977451 0.211160 0.000000
vn 0.977451 0.211160 0.000000
vn -0.987736 0.156132 0.000000
vn -0.987736 0.156132 0.000000
vn -0.977451 0.211161 0.000000
vn -0.977451 0.211161 0.000000
vn -0.991832 0.127550 0.000000
vn -0.991832 0.127550 0.000000
vn -0.983876 0.178854 0.000000
vn -0.983876 0.178854 0.000000
vn 0.000000 0.138140 -0.990413
vn 0.000000 0.138140 -0.990413
vn 0.000000 0.205127 -0.978735
vn 0.000000 0.205127 -0.978735
vn 0.991832 0.127550 0.000000
vn 0.991832 0.127550 0.000000
vn 0.983876 0.178854 0.000000
vn 0.983876 0.178854 0.000000
vn 0.000000 0.205127 0.978735
vn 0.000000 0.138140 0.990413
vn 0.000000 0.138140 0.990413
vn 0.000000 0.205127 0.978735
vn -0.967457 0.253036 0.000000
vn -0.967457 0.253036 0.000000
vn -0.996804 -0.079886 0.000000
vn -0.996804 -0.079886 0.000000
vn 0.000000 -0.105787 0.994389
vn 0.000000 -0.105787 0.994389
vn 0.000000 0.234962 0.972005
vn 0.000000 0.234962 0.972005
vn 0.967457 0.253036 0.000000
vn 0.967457 0.253036 0.000000
vn 0.996804 -0.079886 0.000000
vn 0.996804 -0.079886 0.000000
vn 0.000000 0.234962 -0.972005
vn 0.000000 0.234962 -0.972005
vn 0.000000 -0.105787 -0.994389
vn 0.000000 -0.105787 -0.994389
vn -0.913215 0.407479 0.000000
vn -0.913215 0.407479 0.000000
vn 0.000000 0.381245 -0.924474
vn 0.000000 0.381245 -0.924474
vn 0.913215 0.407479 0.000000
vn 0.913215 0.407479 0.000000
vn 0.000000 0.381245 0.924474
vn 0.000000 0.381245 0.924474
vn -0.991316 -0.131503 0.000000
vn -0.991316 -0.131503 0.000000
vn -0.999789 -0.020520 0.000000
vn -0.999789 -0.020520 0.000000
vn 0.000000 0.006650 0.999978
vn 0.000000 0.006650 0.999978
vn 0.000000 -0.126784 0.991930
vn 0.000000 -0.126784 0.991930
vn 0.991316 -0.131503 0.000000
vn 0.991316 -0.131503 0.000000
vn 0.999789 -0.020520 0.000000
vn 0.999789 -0.020520 0.000000
vn 0.000000 -0.126784 -0.991930
vn 0.000000 -0.126784 -0.991930
vn 0.000000 0.006650 -0.999978
vn 0.000000 0.006650 -0.999978
vn -0.922585 0.385793 0.000000
vn -0.922585 0.385793 0.000000
vn 0.000000 0.360493 0.932762
vn 0.000000 0.360493 0.932762
vn 0.922585 0.385793 0.000000
vn 0.922585 0.385793 0.000000
vn 0.000000 0.360493 -0.932762
vn 0.000000 0.360493 -0.932762
s 1
g Tombstone1 Props pCube5
usemtl initialShadingGroup
f 316/524/581 313/519/582 281/469/583 282/470/584
s off
f 285/473/585 283/471/586 284/472/587 286/474/588
s 2
f 287/475/589 314/521/590 315/522/591 288/476/592
s off
f 282/478/593 281/477/594 287/475/595 288/476/596
s 3
f 282/470/597 288/479/598 315/523/599 316/524/600
s 4
f 287/481/601 281/469/602 313/519/603 314/520/604
f 301/501/605 302/503/606 283/471/607 285/482/608
s 2
f 304/505/609 301/502/610 285/473/611 286/474/612
s 3
f 303/504/613 304/506/614 286/480/615 284/472/616
s 1
f 283/471/617 302/503/618 303/504/619 284/472/620
s 4
f 290/484/621 289/483/622 305/507/623 306/508/624
s 1
f 308/512/625 305/507/626 289/483/627 292/488/628
s 3
f 292/488/629 291/487/630 307/511/631 308/512/632
s 2
f 291/486/633 290/485/634 306/509/635 307/510/636
s 4
f 309/513/637 310/515/638 289/483/622 290/484/621
s 2
f 312/517/639 309/514/640 290/485/634 291/486/633
s 3
f 311/516/641 312/518/642 291/487/630 292/488/629
s 1
f 292/488/628 289/483/627 310/515/643 311/516/644
s 4
f 293/489/645 294/491/646 317/525/647 318/526/648
s 1
f 320/530/649 317/525/650 294/491/651 295/492/652
s 3
f 295/492/653 296/494/654 319/529/655 320/530/656
s 2
f 296/493/657 293/490/658 318/527/659 319/528/660
s 4
f 306/508/624 305/507/623 294/491/646 293/489/645
s 2
f 307/510/636 306/509/635 293/490/658 296/493/657
s 3
f 308/512/632 307/511/631 296/494/654 295/492/653
s 1
f 295/492/652 294/491/651 305/507/626 308/512/625
s 4
f 298/496/661 297/495/662 310/515/638 309/513/637
s 1
f 311/516/644 310/515/643 297/495/663 300/500/664
s 3
f 300/500/665 299/499/666 312/518/642 311/516/641
s 2
f 299/498/667 298/497/668 309/514/640 312/517/639
s 4
f 314/520/604 313/519/603 297/495/662 298/496/661
s 2
f 315/522/591 314/521/590 298/497/668 299/498/667
s 3
f 316/524/600 315/523/599 299/499/666 300/500/665
s 1
f 300/500/664 297/495/663 313/519/582 316/524/581
s 4
f 318/526/648 317/525/647 302/503/606 301/501/605
s 2
f 319/528/660 318/527/659 301/502/610 304/505/609
s 3
f 320/530/656 319/529/655 304/506/614 303/504/613
s 1
f 303/504/619 302/503/618 317/525/650 320/530/649
g default
v -29.822468 3.537453 -0.106714
v -29.822468 3.537453 0.106714
v -29.670713 3.586762 -0.053362
v -29.699147 3.577523 -0.106714
v -29.693377 3.631243 -0.053362
v -29.717565 3.613670 -0.106714
v -29.728678 3.666544 -0.053362
v -29.746251 3.642357 -0.106714
v -29.773160 3.689208 -0.053362
v -29.782399 3.660775 -0.106714
v -29.822468 3.697018 -0.053362
v -29.822468 3.667121 -0.106714
v -29.871776 3.689208 -0.053362
v -29.862537 3.660775 -0.106714
v -29.916258 3.666544 -0.053362
v -29.898685 3.642357 -0.106714
v -29.951558 3.631243 -0.053362
v -29.927371 3.613670 -0.106714
v -29.974223 3.586762 -0.053362
v -29.945789 3.577523 -0.106714
v -29.982033 3.537453 -0.053362
v -29.952136 3.537453 -0.106714
v -29.974223 3.488145 -0.053362
v -29.945789 3.497384 -0.106714
v -29.951558 3.443664 -0.053362
v -29.927371 3.461237 -0.106714
v -29.916258 3.408363 -0.053362
v -29.898685 3.432550 -0.106714
v -29.871776 3.385699 -0.053362
v -29.862537 3.414132 -0.106714
v -29.822468 3.377889 -0.053362
v -29.822468 3.407786 -0.106714
v -29.773160 3.385699 -0.053362
v -29.782399 3.414132 -0.106714
v -29.728678 3.408363 -0.053362
v -29.746251 3.432550 -0.106714
v -29.693378 3.443664 -0.053362
v -29.717565 3.461237 -0.106714
v -29.670713 3.488145 -0.053362
v -29.699147 3.497384 -0.106714
v -29.662904 3.537453 -0.053362
v -29.692800 3.537453 -0.106714
v -29.670713 3.586762 0.053362
v -29.699147 3.577523 0.106714
v -29.693377 3.631243 0.053362
v -29.717565 3.613670 0.106714
v -29.728678 3.666544 0.053362
v -29.746251 3.642357 0.106714
v -29.773160 3.689208 0.053362
v -29.782399 3.660775 0.106714
v -29.822468 3.697018 0.053362
v -29.822468 3.667121 0.106714
v -29.871776 3.689208 0.053362
v -29.862537 3.660775 0.106714
v -29.916258 3.666544 0.053362
v -29.898685 3.642357 0.106714
v -29.951558 3.631243 0.053362
v -29.927371 3.613670 0.106714
v -29.974223 3.586762 0.053362
v -29.945789 3.577523 0.106714
v -29.982033 3.537453 0.053362
v -29.952136 3.537453 0.106714
v -29.974223 3.488145 0.053362
v -29.945789 3.497384 0.106714
v -29.951558 3.443664 0.053362
v -29.927371 3.461237 0.106714
v -29.916258 3.408363 0.053362
v -29.898685 3.432550 0.106714
v -29.871776 3.385699 0.053362
v -29.862537 3.414132 0.106714
v -29.822468 3.377889 0.053362
v -29.822468 3.407786 0.106714
v -29.773160 3.385699 0.053362
v -29.782399 3.414132 0.106714
v -29.728678 3.408363 0.053362
v -29.746251 3.432550 0.106714
v -29.693378 3.443664 0.053362
v -29.717565 3.461237 0.106714
v -29.670713 3.488145 0.053362
v -29.699147 3.497384 0.106714
v -29.662904 3.537453 0.053362
v -29.692800 3.537453 0.106714
vt 0.375000 0.406240
vt 0.376171 0.312500
vt 0.386329 0.312500
vt 0.623829 0.312500
vt 0.613671 0.312500
vt 0.388671 0.312500
vt 0.398829 0.312500
vt 0.401171 0.312500
vt 0.411329 0.312500
vt 0.413671 0.312500
vt 0.423829 0.312500
vt 0.426171 0.312500
vt 0.436329 0.312500
vt 0.438671 0.312500
vt 0.448829 0.312500
vt 0.451171 0.312500
vt 0.461329 0.312500
vt 0.463671 0.312500
vt 0.473829 0.312500
vt 0.476171 0.312500
vt 0.486329 0.312500
vt 0.488671 0.312500
vt 0.498829 0.312500
vt 0.501171 0.312500
vt 0.511329 0.312500
vt 0.513671 0.312500
vt 0.523829 0.312500
vt 0.526171 0.312500
vt 0.536329 0.312500
vt 0.538671 0.312500
vt 0.548829 0.312500
vt 0.551171 0.312500
vt 0.561329 0.312500
vt 0.563671 0.312500
vt 0.573829 0.312500
vt 0.576171 0.312500
vt 0.586329 0.312500
vt 0.588671 0.312500
vt 0.598829 0.312500
vt 0.601171 0.312500
vt 0.611329 0.312500
vt 0.625000 0.593759
vt 0.623829 0.687500
vt 0.613671 0.687500
vt 0.376171 0.687500
vt 0.386329 0.687500
vt 0.388671 0.687500
vt 0.398829 0.687500
vt 0.401171 0.687500
vt 0.411329 0.687500
vt 0.413671 0.687500
vt 0.423829 0.687500
vt 0.426171 0.687500
vt 0.436329 0.687500
vt 0.438671 0.687500
vt 0.448829 0.687500
vt 0.451171 0.687500
vt 0.461329 0.687500
vt 0.463671 0.687500
vt 0.473829 0.687500
vt 0.476171 0.687500
vt 0.486329 0.687500
vt 0.488671 0.687500
vt 0.498829 0.687500
vt 0.501171 0.687500
vt 0.511329 0.687500
vt 0.513671 0.687500
vt 0.523829 0.687500
vt 0.526171 0.687500
vt 0.536329 0.687500
vt 0.538671 0.687500
vt 0.548829 0.687500
vt 0.551171 0.687500
vt 0.561329 0.687500
vt 0.563671 0.687500
vt 0.573829 0.687500
vt 0.576171 0.687500
vt 0.586329 0.687500
vt 0.588671 0.687500
vt 0.598829 0.687500
vt 0.601171 0.687500
vt 0.611329 0.687500
vt 0.387500 0.406241
vt 0.375000 0.593759
vt 0.400000 0.406240
vt 0.387500 0.593759
vt 0.412500 0.406241
vt 0.400000 0.593759
vt 0.425000 0.406241
vt 0.412500 0.593760
vt 0.437500 0.406241
vt 0.425000 0.593759
vt 0.450000 0.406241
vt 0.437500 0.593759
vt 0.462500 0.406241
vt 0.450000 0.593759
vt 0.475000 0.406241
vt 0.462500 0.593759
vt 0.487500 0.406241
vt 0.475000 0.593759
vt 0.500000 0.406241
vt 0.487500 0.593760
vt 0.512500 0.406241
vt 0.500000 0.593760
vt 0.525000 0.406241
vt 0.512500 0.593760
vt 0.537500 0.406241
vt 0.525000 0.593760
vt 0.550000 0.406241
vt 0.537500 0.593760
vt 0.562500 0.406241
vt 0.550000 0.593759
vt 0.575000 0.406241
vt 0.562500 0.593759
vt 0.587500 0.406241
vt 0.575000 0.593759
vt 0.600000 0.406241
vt 0.587500 0.593759
vt 0.612500 0.406241
vt 0.600000 0.593759
vt 0.625000 0.406241
vt 0.612500 0.593759
vt 0.620760 0.117013
vt 0.602724 0.081616
vt 0.574634 0.053526
vt 0.539237 0.035490
vt 0.500000 0.029276
vt 0.460763 0.035490
vt 0.425367 0.053526
vt 0.397276 0.081617
vt 0.379240 0.117013
vt 0.373026 0.156250
vt 0.379240 0.195487
vt 0.397276 0.230884
vt 0.425366 0.258974
vt 0.460763 0.277010
vt 0.500000 0.283224
vt 0.539237 0.277010
vt 0.574634 0.258974
vt 0.602724 0.230884
vt 0.620760 0.195487
vt 0.500000 0.156250
vt 0.626974 0.156250
vt 0.602724 0.918384
vt 0.574633 0.946474
vt 0.539237 0.964510
vt 0.500000 0.970724
vt 0.460763 0.964510
vt 0.425367 0.946474
vt 0.397276 0.918383
vt 0.379240 0.882987
vt 0.373026 0.843750
vt 0.379240 0.804513
vt 0.397276 0.769116
vt 0.425366 0.741026
vt 0.460763 0.722990
vt 0.500000 0.716776
vt 0.539237 0.722990
vt 0.574634 0.741026
vt 0.602724 0.769116
vt 0.620760 0.804513
vt 0.626974 0.843750
vt 0.620760 0.882987
vt 0.500000 0.843750
vn 0.829671 0.269575 -0.488851
vn 0.829671 0.269575 -0.488851
vn 0.705758 0.512766 -0.488852
vn 0.705758 0.512766 -0.488852
vn 0.872368 0.000000 -0.488850
vn 0.872368 0.000000 -0.488850
vn 0.512762 0.705761 -0.488852
vn 0.512762 0.705761 -0.488852
vn 0.269577 0.829670 -0.488851
vn 0.269577 0.829671 -0.488851
vn 0.000000 0.872367 -0.488851
vn 0.000000 0.872367 -0.488851
vn -0.269577 0.829670 -0.488851
vn -0.269577 0.829671 -0.488851
vn -0.512763 0.705761 -0.488851
vn -0.512763 0.705761 -0.488851
vn -0.705760 0.512766 -0.488850
vn -0.705760 0.512766 -0.488850
vn -0.829671 0.269576 -0.488850
vn -0.829671 0.269577 -0.488850
vn -0.872368 0.000000 -0.488850
vn -0.872368 0.000000 -0.488850
vn -0.829671 -0.269576 -0.488850
vn -0.829671 -0.269577 -0.488850
vn -0.705760 -0.512766 -0.488850
vn -0.705760 -0.512766 -0.488850
vn -0.512763 -0.705761 -0.488851
vn -0.512763 -0.705762 -0.488851
vn -0.269577 -0.829671 -0.488850
vn -0.269577 -0.829671 -0.488850
vn 0.000000 -0.872368 -0.488850
vn 0.000000 -0.872368 -0.488850
vn 0.269578 -0.829671 -0.488850
vn 0.269578 -0.829671 -0.488850
vn 0.512764 -0.705761 -0.488850
vn 0.512764 -0.705761 -0.488850
vn 0.705759 -0.512767 -0.488850
vn 0.705759 -0.512767 -0.488850
vn 0.829671 -0.269577 -0.488850
vn 0.829671 -0.269577 -0.488850
vn 0.829671 0.269575 0.488851
vn 0.829671 0.269575 0.488851
vn 0.872368 -0.000000 0.488850
vn 0.872368 -0.000000 0.488850
vn 0.705758 0.512766 0.488852
vn 0.705758 0.512766 0.488852
vn 0.512762 0.705761 0.488851
vn 0.512762 0.705761 0.488852
vn 0.269577 0.829671 0.488851
vn 0.269577 0.829671 0.488851
vn 0.000000 0.872367 0.488851
vn 0.000000 0.872367 0.488851
vn -0.269577 0.829671 0.488851
vn -0.269577 0.829671 0.488851
vn -0.512763 0.705761 0.488851
vn -0.512763 0.705761 0.488851
vn -0.705760 0.512766 0.488850
vn -0.705760 0.512766 0.488850
vn -0.829671 0.269577 0.488850
vn -0.829671 0.269576 0.488850
vn -0.872368 0.000000 0.488850
vn -0.872368 0.000000 0.488850
vn -0.829671 -0.269577 0.488850
vn -0.829671 -0.269576 0.488850
vn -0.705760 -0.512766 0.488850
vn -0.705760 -0.512766 0.488850
vn -0.512763 -0.705762 0.488851
vn -0.512763 -0.705762 0.488850
vn -0.269577 -0.829671 0.488850
vn -0.269577 -0.829671 0.488850
vn -0.000000 -0.872368 0.488850
vn -0.000000 -0.872368 0.488850
vn 0.269578 -0.829671 0.488850
vn 0.269578 -0.829671 0.488850
vn 0.512764 -0.705761 0.488850
vn 0.512764 -0.705761 0.488851
vn 0.705759 -0.512767 0.488850
vn 0.705759 -0.512767 0.488850
vn 0.829671 -0.269577 0.488850
vn 0.829671 -0.269577 0.488850
vn 0.951057 0.309015 0.000000
vn 0.809016 0.587787 0.000000
vn 0.809016 0.587787 0.000000
vn 0.951057 0.309015 0.000000
vn 0.587782 0.809019 0.000000
vn 0.587782 0.809019 0.000000
vn 0.309017 0.951056 0.000000
vn 0.309017 0.951056 0.000000
vn 0.000000 1.000000 0.000000
vn 0.000000 1.000000 0.000000
vn -0.309017 0.951056 0.000000
vn -0.309017 0.951056 0.000000
vn -0.587784 0.809018 0.000000
vn -0.587784 0.809018 0.000000
vn -0.809017 0.587786 0.000000
vn -0.809017 0.587786 0.000000
vn -0.951056 0.309018 0.000000
vn -0.951056 0.309018 0.000000
vn -1.000000 -0.000000 0.000000
vn -1.000000 -0.000000 0.000000
vn -0.951056 -0.309018 -0.000000
vn -0.951056 -0.309018 -0.000000
vn -0.809017 -0.587786 -0.000000
vn -0.809017 -0.587786 -0.000000
vn -0.587783 -0.809019 -0.000000
vn -0.587783 -0.809019 -0.000000
vn -0.309017 -0.951057 -0.000000
vn -0.309017 -0.951057 -0.000000
vn 0.000000 -1.000000 -0.000000
vn 0.000000 -1.000000 -0.000000
vn 0.309018 -0.951056 -0.000000
vn 0.309018 -0.951056 -0.000000
vn 0.587784 -0.809018 -0.000000
vn 0.587784 -0.809018 -0.000000
vn 0.809015 -0.587787 -0.000000
vn 0.809015 -0.587787 -0.000000
vn 0.951056 -0.309018 -0.000000
vn 0.951056 -0.309018 -0.000000
vn 1.000000 0.000000 0.000000
vn 1.000000 0.000000 0.000000
vn 0.000000 0.000000 -1.000000
vn 0.000000 0.000000 -1.000000
vn 0.000000 0.000000 -1.000000
vn 0.000000 0.000000 -1.000000
vn 0.000000 0.000000 -1.000000
vn 0.000000 0.000000 -1.000000
vn 0.000000 0.000000 -1.000000
vn 0.000000 0.000000 -1.000000
vn 0.000000 0.000000 -1.000000
vn 0.000000 0.000000 -1.000000
vn 0.000000 0.000000 -1.000000
vn 0.000000 0.000000 -1.000000
vn 0.000000 0.000000 -1.000000
vn 0.000000 0.000000 -1.000000
vn 0.000000 0.000000 -1.000000
vn 0.000000 0.000000 -1.000000
vn 0.000000 0.000000 -1.000000
vn 0.000000 0.000000 -1.000000
vn 0.000000 0.000000 -1.000000
vn 0.000000 0.000000 -1.000000
vn 0.000000 0.000000 -1.000000
vn 0.000000 -0.000000 1.000000
vn 0.000000 -0.000000 1.000000
vn 0.000000 -0.000000 1.000000
vn 0.000000 -0.000000 1.000000
vn 0.000000 -0.000000 1.000000
vn 0.000000 -0.000000 1.000000
vn 0.000000 -0.000000 1.000000
vn 0.000000 -0.000000 1.000000
vn 0.000000 -0.000000 1.000000
vn 0.000000 -0.000000 1.000000
vn 0.000000 -0.000000 1.000000
vn 0.000000 -0.000000 1.000000
vn 0.000000 -0.000000 1.000000
vn 0.000000 -0.000000 1.000000
vn 0.000000 -0.000000 1.000000
vn 0.000000 -0.000000 1.000000
vn 0.000000 -0.000000 1.000000
vn 0.000000 -0.000000 1.000000
vn 0.000000 -0.000000 1.000000
vn 0.000000 -0.000000 1.000000
vn 0.000000 -0.000000 1.000000
s 1
g Tombstone1 Props pCylinder1
usemtl initialShadingGroup
f 323/531/669 324/532/670 326/533/671 325/613/672
f 324/534/670 323/651/669 361/649/673 362/535/674
f 325/613/672 326/536/671 328/537/675 327/615/676
f 327/615/676 328/538/675 330/539/677 329/617/678
f 329/617/678 330/540/677 332/541/679 331/619/680
f 331/619/680 332/542/679 334/543/681 333/621/682
f 333/621/682 334/544/681 336/545/683 335/623/684
f 335/623/684 336/546/683 338/547/685 337/625/686
f 337/625/686 338/548/685 340/549/687 339/627/688
f 339/627/688 340/550/687 342/551/689 341/629/690
f 341/629/690 342/552/689 344/553/691 343/631/692
f 343/631/692 344/554/691 346/555/693 345/633/694
f 345/633/694 346/556/693 348/557/695 347/635/696
f 347/635/696 348/558/695 350/559/697 349/637/698
f 349/637/698 350/560/697 352/561/699 351/639/700
f 351/639/700 352/562/699 354/563/701 353/641/702
f 353/641/702 354/564/701 356/565/703 355/643/704
f 355/643/704 356/566/703 358/567/705 357/645/706
f 357/645/706 358/568/705 360/569/707 359/647/708
f 359/647/708 360/570/707 362/571/674 361/649/673
s 2
f 363/572/709 364/573/710 402/574/711 401/652/712
f 364/575/710 363/614/709 365/616/713 366/576/714
f 366/577/714 365/616/713 367/618/715 368/578/716
f 368/579/716 367/618/715 369/620/717 370/580/718
f 370/581/718 369/620/717 371/622/719 372/582/720
f 372/583/720 371/622/719 373/624/721 374/584/722
f 374/585/722 373/624/721 375/626/723 376/586/724
f 376/587/724 375/626/723 377/628/725 378/588/726
f 378/589/726 377/628/725 379/630/727 380/590/728
f 380/591/728 379/630/727 381/632/729 382/592/730
f 382/593/730 381/632/729 383/634/731 384/594/732
f 384/595/732 383/634/731 385/636/733 386/596/734
f 386/597/734 385/636/733 387/638/735 388/598/736
f 388/599/736 387/638/735 389/640/737 390/600/738
f 390/601/738 389/640/737 391/642/739 392/602/740
f 392/603/740 391/642/739 393/644/741 394/604/742
f 394/605/742 393/644/741 395/646/743 396/606/744
f 396/607/744 395/646/743 397/648/745 398/608/746
f 398/609/746 397/648/745 399/650/747 400/610/748
f 400/611/748 399/650/747 401/652/712 402/612/711
s 3
f 323/531/749 325/613/750 365/616/751 363/614/752
f 325/613/750 327/615/753 367/618/754 365/616/751
f 327/615/753 329/617/755 369/620/756 367/618/754
f 329/617/755 331/619/757 371/622/758 369/620/756
f 331/619/757 333/621/759 373/624/760 371/622/758
f 333/621/759 335/623/761 375/626/762 373/624/760
f 335/623/761 337/625/763 377/628/764 375/626/762
f 337/625/763 339/627/765 379/630/766 377/628/764
f 339/627/765 341/629/767 381/632/768 379/630/766
f 341/629/767 343/631/769 383/634/770 381/632/768
f 343/631/769 345/633/771 385/636/772 383/634/770
f 345/633/771 347/635/773 387/638/774 385/636/772
f 347/635/773 349/637/775 389/640/776 387/638/774
f 349/637/775 351/639/777 391/642/778 389/640/776
f 351/639/777 353/641/779 393/644/780 391/642/778
f 353/641/779 355/643/781 395/646/782 393/644/780
f 355/643/781 357/645/783 397/648/784 395/646/782
f 357/645/783 359/647/785 399/650/786 397/648/784
f 359/647/785 361/649/787 401/652/788 399/650/786
f 361/649/787 323/651/749 363/572/752 401/652/788
s 4
f 326/654/789 324/653/790 321/672/791
f 328/655/792 326/654/789 321/672/791
f 330/656/793 328/655/792 321/672/791
f 332/657/794 330/656/793 321/672/791
f 334/658/795 332/657/794 321/672/791
f 336/659/796 334/658/795 321/672/791
f 338/660/797 336/659/796 321/672/791
f 340/661/798 338/660/797 321/672/791
f 342/662/799 340/661/798 321/672/791
f 344/663/800 342/662/799 321/672/791
f 346/664/801 344/663/800 321/672/791
f 348/665/802 346/664/801 321/672/791
f 350/666/803 348/665/802 321/672/791
f 352/667/804 350/666/803 321/672/791
f 354/668/805 352/667/804 321/672/791
f 356/669/806 354/668/805 321/672/791
f 358/670/807 356/669/806 321/672/791
f 360/671/808 358/670/807 321/672/791
f 362/673/809 360/671/808 321/672/791
f 324/653/790 362/673/809 321/672/791
s 5
f 364/693/810 366/674/811 322/694/812
f 366/674/811 368/675/813 322/694/812
f 368/675/813 370/676/814 322/694/812
f 370/676/814 372/677/815 322/694/812
f 372/677/815 374/678/816 322/694/812
f 374/678/816 376/679/817 322/694/812
f 376/679/817 378/680/818 322/694/812
f 378/680/818 380/681/819 322/694/812
f 380/681/819 382/682/820 322/694/812
f 382/682/820 384/683/821 322/694/812
f 384/683/821 386/684/822 322/694/812
f 386/684/822 388/685/823 322/694/812
f 388/685/823 390/686/824 322/694/812
f 390/686/824 392/687/825 322/694/812
f 392/687/825 394/688/826 322/694/812
f 394/688/826 396/689/827 322/694/812
f 396/689/827 398/690/828 322/694/812
f 398/690/828 400/691/829 322/694/812
f 400/691/829 402/692/830 322/694/812
f 402/692/830 364/693/810 322/694/812
