# This file uses centimeters as units for non-parametric coordinates.

mtllib Tombstone2.mtl
g default
v -28.261292 1.339426 0.258350
v -26.673494 1.339426 0.258350
v -28.261292 1.726246 0.258350
v -26.673494 1.726246 0.258350
v -28.261292 1.726246 -0.250110
v -26.673494 1.726246 -0.250110
v -28.261292 1.339426 -0.250110
v -26.673494 1.339426 -0.250110
vt 0.375000 0.000000
vt 0.625000 0.000000
vt 0.375000 0.250000
vt 0.625000 0.250000
vt 0.375000 0.500000
vt 0.625000 0.500000
vt 0.375000 0.750000
vt 0.625000 0.750000
vt 0.375000 1.000000
vt 0.625000 1.000000
vt 0.875000 0.000000
vt 0.875000 0.250000
vt 0.125000 0.000000
vt 0.125000 0.250000
vn 0.000000 0.000000 1.000000
vn 0.000000 0.000000 1.000000
vn 0.000000 0.000000 1.000000
vn 0.000000 0.000000 1.000000
vn 0.000000 1.000000 0.000000
vn 0.000000 1.000000 0.000000
vn 0.000000 1.000000 0.000000
vn 0.000000 1.000000 0.000000
vn 0.000000 0.000000 -1.000000
vn 0.000000 0.000000 -1.000000
vn 0.000000 0.000000 -1.000000
vn 0.000000 0.000000 -1.000000
vn 0.000000 -1.000000 0.000000
vn 0.000000 -1.000000 0.000000
vn 0.000000 -1.000000 0.000000
vn 0.000000 -1.000000 0.000000
vn 1.000000 0.000000 0.000000
vn 1.000000 0.000000 0.000000
vn 1.000000 0.000000 0.000000
vn 1.000000 0.000000 0.000000
vn -1.000000 0.000000 0.000000
vn -1.000000 0.000000 0.000000
vn -1.000000 0.000000 0.000000
vn -1.000000 0.000000 0.000000
s off
g pCube11 Tombstone2 Props
usemtl initialShadingGroup
f 1/1/1 2/2/2 4/4/3 3/3/4
f 3/3/5 4/4/6 6/6/7 5/5/8
f 5/5/9 6/6/10 8/8/11 7/7/12
f 7/7/13 8/8/14 2/10/15 1/9/16
f 2/2/17 8/11/18 6/12/19 4/4/20
f 7/13/21 1/1/22 3/3/23 5/14/24
g default
v -28.136786 1.727001 0.110775
v -26.787495 1.727001 0.110775
v -27.833225 4.077631 0.110775
v -28.055447 3.855410 0.110775
v -28.136786 3.551850 0.110775
v -27.529665 4.158970 0.110775
v -26.868833 3.855410 0.110775
v -27.091055 4.077631 0.110775
v -27.394615 4.158970 0.110775
v -26.787495 3.551850 0.110775
v -27.132150 4.006452 0.110775
v -26.940012 3.814315 0.110775
v -27.405067 4.079580 0.110775
v -27.519213 4.079580 0.110775
v -27.792130 4.006452 0.110775
v -27.984268 3.814315 0.110775
v -28.057396 3.541397 0.110775
v -28.057396 1.806391 0.110775
v -26.866884 1.806391 0.110775
v -26.866884 3.541398 0.110775
v -27.132150 4.006452 0.040082
v -26.940012 3.814315 0.040082
v -27.405067 4.079580 0.040082
v -27.519213 4.079580 0.040082
v -27.792130 4.006452 0.040082
v -27.984268 3.814315 0.040082
v -28.057396 3.541397 0.040082
v -28.057396 1.806391 0.040082
v -26.866884 1.806391 0.040082
v -26.866884 3.541398 0.040082
v -28.136786 1.727001 -0.128921
v -26.787495 1.727001 -0.128921
v -27.833225 4.077631 -0.128921
v -28.055447 3.855410 -0.128921
v -28.136786 3.551850 -0.128921
v -27.529665 4.158970 -0.128921
v -26.868833 3.855410 -0.128921
v -27.091055 4.077631 -0.128921
v -27.394615 4.158970 -0.128921
v -26.787495 3.551850 -0.128921
v -27.132150 4.006452 -0.128921
v -26.940012 3.814315 -0.128921
v -27.405067 4.079580 -0.128921
v -27.519213 4.079580 -0.128921
v -27.792130 4.006452 -0.128921
v -27.984268 3.814315 -0.128921
v -28.057396 3.541397 -0.128921
v -28.057396 1.806391 -0.128921
v -26.866884 1.806391 -0.128921
v -26.866884 3.541398 -0.128921
v -27.132150 4.006452 -0.058229
v -26.940012 3.814315 -0.058229
v -27.405067 4.079580 -0.058229
v -27.519213 4.079580 -0.058229
v -27.792130 4.006452 -0.058229
v -27.984268 3.814315 -0.058229
v -28.057396 3.541397 -0.058229
v -28.057396 1.806391 -0.058229
v -26.866884 1.806391 -0.058229
v -26.866884 3.541398 -0.058229
vt 0.375000 1.000000
vt 0.625000 1.000000
vt 0.625000 0.000000
vt 0.375000 0.187590
vt 0.512511 0.250000
vt 0.487489 0.250000
vt 0.375000 0.000000
vt 0.625000 0.187590
vt 0.425692 0.255023
vt 0.375000 0.250000
vt 0.625000 0.250000
vt 0.574167 0.254845
vt 0.625000 0.250000
vt 0.574167 0.254845
vt 0.512511 0.250000
vt 0.487489 0.250000
vt 0.425692 0.255023
vt 0.375000 0.250000
vt 0.375000 0.187590
vt 0.375000 0.000000
vt 0.625000 0.000000
vt 0.625000 0.187590
vt 0.625000 0.250000
vt 0.574167 0.254845
vt 0.512511 0.250000
vt 0.487489 0.250000
vt 0.425692 0.255023
vt 0.375000 0.250000
vt 0.375000 0.187590
vt 0.375000 0.000000
vt 0.625000 0.000000
vt 0.625000 0.187590
vt 0.625000 0.000000
vt 0.625000 0.187590
vt 0.375000 0.187590
vt 0.375000 0.250000
vt 0.425692 0.255023
vt 0.487489 0.250000
vt 0.512511 0.250000
vt 0.574167 0.254845
vt 0.625000 0.250000
vt 0.574167 0.254845
vt 0.625000 0.250000
vt 0.512511 0.250000
vt 0.487489 0.250000
vt 0.425692 0.255023
vt 0.375000 0.250000
vt 0.375000 0.187590
vt 0.375000 0.000000
vt 0.375000 0.000000
vt 0.625000 0.000000
vt 0.625000 0.187590
vt 0.574167 0.254845
vt 0.625000 0.250000
vt 0.512511 0.250000
vt 0.487489 0.250000
vt 0.425692 0.255023
vt 0.375000 0.250000
vt 0.375000 0.187590
vt 0.375000 0.000000
vt 0.625000 0.000000
vt 0.625000 0.187590
vt 0.625000 1.000000
vt 0.375000 1.000000
vn 0.999271 0.038188 0.000000
vn 1.000000 0.000000 0.000000
vn 1.000000 0.000000 0.000000
vn 0.999271 0.038188 0.000000
vn -0.999271 0.038188 0.000000
vn -0.965926 0.258819 0.000000
vn -0.965926 0.258819 0.000000
vn -0.999271 0.038188 0.000000
vn -0.707107 0.707107 0.000000
vn -0.707107 0.707107 0.000000
vn -0.707107 0.707107 0.000000
vn -0.707107 0.707107 0.000000
vn -0.258819 0.965926 0.000000
vn -0.182337 0.983236 0.000000
vn -0.182337 0.983236 0.000000
vn -0.258819 0.965926 0.000000
vn 0.182337 0.983236 0.000000
vn 0.258819 0.965926 0.000000
vn 0.258819 0.965926 0.000000
vn 0.182337 0.983236 0.000000
vn 0.707107 0.707107 0.000000
vn 0.707107 0.707107 0.000000
vn 0.707107 0.707107 0.000000
vn 0.707107 0.707107 0.000000
vn 0.965926 0.258819 0.000000
vn 0.965926 0.258819 0.000000
vn 0.000000 0.000000 1.000000
vn 0.000000 0.000000 1.000000
vn 0.000000 0.000000 1.000000
vn 0.000000 0.000000 1.000000
vn 0.000000 0.000000 1.000000
vn 0.000000 0.000000 1.000000
vn 0.000000 0.000000 1.000000
vn 0.000000 0.000000 1.000000
vn 0.000000 0.000000 1.000000
vn 0.000000 0.000000 1.000000
vn 0.000000 0.000000 1.000000
vn 0.000000 0.000000 1.000000
vn 0.000000 0.000000 1.000000
vn 0.000000 0.000000 1.000000
vn 0.000000 0.000000 1.000000
vn 0.000000 0.000000 1.000000
vn 0.000000 0.000000 1.000000
vn 0.000000 0.000000 1.000000
vn 0.000000 0.000000 1.000000
vn 0.000000 0.000000 1.000000
vn -0.707107 -0.707106 0.000000
vn -0.707107 -0.707106 0.000000
vn -0.707107 -0.707106 0.000000
vn -0.707107 -0.707106 0.000000
vn -0.258819 -0.965926 0.000000
vn -0.185645 -0.982617 0.000000
vn -0.185645 -0.982617 0.000000
vn -0.258819 -0.965926 0.000000
vn 0.185645 -0.982617 0.000000
vn 0.185645 -0.982617 0.000000
vn 0.258819 -0.965926 0.000000
vn 0.258819 -0.965926 0.000000
vn 0.707107 -0.707107 0.000000
vn 0.707107 -0.707107 0.000000
vn 0.707107 -0.707107 0.000000
vn 0.707107 -0.707107 0.000000
vn 0.965926 -0.258818 0.000000
vn 0.999337 -0.036395 0.000000
vn 0.999337 -0.036395 0.000000
vn 0.965926 -0.258818 0.000000
vn 1.000000 0.000000 0.000000
vn 1.000000 0.000000 0.000000
vn 0.000000 1.000000 0.000000
vn 0.000000 1.000000 0.000000
vn 0.000000 1.000000 0.000000
vn 0.000000 1.000000 0.000000
vn -1.000000 0.000000 0.000000
vn -0.999337 -0.036396 0.000000
vn -0.999337 -0.036396 0.000000
vn -1.000000 0.000000 0.000000
vn -0.965926 -0.258820 0.000000
vn -0.965926 -0.258820 0.000000
vn 0.000000 0.000000 1.000000
vn 0.000000 0.000000 1.000000
vn 0.000000 0.000000 1.000000
vn 0.000000 0.000000 1.000000
vn -0.000000 0.000000 1.000000
vn -0.000000 0.000000 1.000000
vn 0.000000 0.000000 1.000000
vn 0.000000 0.000000 1.000000
vn -0.000000 0.000000 1.000000
vn -0.000000 0.000000 1.000000
vn 0.000000 0.000000 -1.000000
vn 0.000000 0.000000 -1.000000
vn 0.000000 0.000000 -1.000000
vn 0.000000 0.000000 -1.000000
vn 0.000000 0.000000 -1.000000
vn 0.000000 0.000000 -1.000000
vn 0.000000 0.000000 -1.000000
vn 0.000000 0.000000 -1.000000
vn 0.000000 0.000000 -1.000000
vn 0.000000 0.000000 -1.000000
vn 0.000000 0.000000 -1.000000
vn 0.000000 0.000000 -1.000000
vn 0.000000 0.000000 -1.000000
vn 0.000000 0.000000 -1.000000
vn 0.000000 0.000000 -1.000000
vn 0.000000 0.000000 -1.000000
vn 0.000000 0.000000 -1.000000
vn 0.000000 0.000000 -1.000000
vn 0.000000 0.000000 -1.000000
vn 0.000000 0.000000 -1.000000
vn -0.707107 -0.707106 0.000000
vn -0.707107 -0.707106 0.000000
vn -0.707107 -0.707106 0.000000
vn -0.707107 -0.707106 0.000000
vn -0.258819 -0.965926 0.000000
vn -0.258819 -0.965926 0.000000
vn -0.185645 -0.982617 0.000000
vn -0.185645 -0.982617 0.000000
vn 0.185645 -0.982617 0.000000
vn 0.185645 -0.982617 0.000000
vn 0.258819 -0.965926 0.000000
vn 0.258819 -0.965926 0.000000
vn 0.707107 -0.707107 0.000000
vn 0.707107 -0.707107 0.000000
vn 0.707107 -0.707107 0.000000
vn 0.707107 -0.707107 0.000000
vn 0.965926 -0.258818 0.000000
vn 0.965926 -0.258818 0.000000
vn 0.999337 -0.036395 0.000000
vn 0.999337 -0.036395 0.000000
vn 1.000000 0.000000 0.000000
vn 1.000000 0.000000 0.000000
vn 0.000000 1.000000 0.000000
vn 0.000000 1.000000 0.000000
vn 0.000000 1.000000 0.000000
vn 0.000000 1.000000 0.000000
vn -1.000000 0.000000 0.000000
vn -1.000000 0.000000 0.000000
vn -0.999337 -0.036396 0.000000
vn -0.999337 -0.036396 0.000000
vn -0.965926 -0.258820 0.000000
vn -0.965926 -0.258820 0.000000
vn 0.000000 0.000000 -1.000000
vn 0.000000 0.000000 -1.000000
vn 0.000000 0.000000 -1.000000
vn 0.000000 0.000000 -1.000000
vn 0.000000 0.000000 -1.000000
vn 0.000000 0.000000 -1.000000
vn 0.000000 0.000000 -1.000000
vn 0.000000 0.000000 -1.000000
vn 0.000000 0.000000 -1.000000
vn 0.000000 0.000000 -1.000000
vn 0.000000 -1.000000 0.000000
vn 0.000000 -1.000000 0.000000
vn 0.000000 -1.000000 0.000000
vn 0.000000 -1.000000 0.000000
vn -1.000000 0.000000 0.000000
vn -1.000000 0.000000 0.000000
s 1
g Tombstone2 Props pCube10
usemtl initialShadingGroup
f 18/22/25 10/17/26 40/47/27 48/48/28
s 2
f 13/18/29 12/24/30 42/50/31 43/49/32
s off
f 12/24/33 11/23/34 41/51/35 42/50/36
s 3
f 11/23/37 14/20/38 44/52/39 41/51/40
f 17/19/41 16/26/42 46/54/43 47/53/44
s off
f 16/26/45 15/25/46 45/55/47 46/54/48
s 1
f 15/25/49 18/22/25 48/48/28 45/55/50
s 4
f 15/25/51 16/26/52 19/28/53 20/27/54
f 16/26/52 17/19/55 21/29/56 19/28/53
f 17/19/55 14/20/57 22/30/58 21/29/56
f 14/20/57 11/23/59 23/31/60 22/30/58
f 11/23/59 12/24/61 24/32/62 23/31/60
f 12/24/61 13/18/63 25/33/64 24/32/62
f 13/18/63 9/21/65 26/34/66 25/33/64
f 9/21/65 10/17/67 27/35/68 26/34/66
f 10/17/67 18/22/69 28/36/70 27/35/68
f 18/22/69 15/25/51 20/27/54 28/36/70
s off
f 20/27/71 19/28/72 29/38/73 30/37/74
s 5
f 19/28/75 21/29/76 31/39/77 29/38/78
f 21/29/76 22/30/79 32/40/80 31/39/77
f 22/30/79 23/31/81 33/41/82 32/40/80
s off
f 23/31/83 24/32/84 34/42/85 33/41/86
s 6
f 24/32/87 25/33/88 35/43/89 34/42/90
f 25/33/88 26/34/91 36/44/92 35/43/89
s off
f 26/34/93 27/35/94 37/45/95 36/44/96
s 7
f 27/35/97 28/36/98 38/46/99 37/45/100
f 28/36/98 20/27/101 30/37/102 38/46/99
s 8
f 33/41/103 29/38/104 31/39/105 32/40/106
f 38/46/107 35/43/108 36/44/109 37/45/110
f 30/37/111 34/42/112 35/43/108 38/46/107
f 30/37/111 29/38/104 33/41/103 34/42/112
s 10
f 45/55/113 50/57/114 49/56/115 46/54/116
f 46/54/116 49/56/115 51/58/117 47/53/118
f 47/53/118 51/58/117 52/59/119 44/52/120
f 44/52/120 52/59/119 53/60/121 41/51/122
f 41/51/122 53/60/121 54/61/123 42/50/124
f 42/50/124 54/61/123 55/62/125 43/49/126
f 43/49/126 55/62/125 56/64/127 39/63/128
f 39/63/128 56/64/127 57/65/129 40/47/130
f 40/47/130 57/65/129 58/66/131 48/48/132
f 48/48/132 58/66/131 50/57/114 45/55/113
s off
f 50/57/133 60/68/134 59/67/135 49/56/136
s 11
f 49/56/137 59/67/138 61/69/139 51/58/140
f 51/58/140 61/69/139 62/70/141 52/59/142
f 52/59/142 62/70/141 63/71/143 53/60/144
s off
f 53/60/145 63/71/146 64/72/147 54/61/148
s 12
f 54/61/149 64/72/150 65/73/151 55/62/152
f 55/62/152 65/73/151 66/74/153 56/64/154
s off
f 56/64/155 66/74/156 67/75/157 57/65/158
s 13
f 57/65/159 67/75/160 68/76/161 58/66/162
f 58/66/162 68/76/161 60/68/163 50/57/164
s 14
f 63/71/165 62/70/166 61/69/167 59/67/168
f 68/76/169 67/75/170 66/74/171 65/73/172
f 60/68/173 68/76/169 65/73/172 64/72/174
f 60/68/173 64/72/174 63/71/165 59/67/168
s 3
f 17/19/41 47/53/44 44/52/39 14/20/38
s off
f 9/15/175 39/78/176 40/77/177 10/16/178
s 2
f 13/18/29 43/49/32 39/63/179 9/21/180
